<?xml version="1.0" standalone="no"?>
<!DOCTYPE svg PUBLIC "-//W3C//DTD SVG 1.1//EN" "http://www.w3.org/Graphics/SVG/1.1/DTD/svg11.dtd" >
<!--
2013-9-30: Created.
-->
<svg>
<metadata>
Created by iconfont
</metadata>
<defs>

<font id="iconfont" horiz-adv-x="1024" >
  <font-face
    font-family="iconfont"
    font-weight="500"
    font-stretch="normal"
    units-per-em="1024"
    ascent="896"
    descent="-128"
  />
    <missing-glyph />
    
    <glyph glyph-name="x" unicode="x" horiz-adv-x="1001"
d="M281 543q-27 -1 -53 -1h-83q-18 0 -36.5 -6t-32.5 -18.5t-23 -32t-9 -45.5v-76h912v41q0 16 -0.5 30t-0.5 18q0 13 -5 29t-17 29.5t-31.5 22.5t-49.5 9h-133v-97h-438v97zM955 310v-52q0 -23 0.5 -52t0.5 -58t-10.5 -47.5t-26 -30t-33 -16t-31.5 -4.5q-14 -1 -29.5 -0.5
t-29.5 0.5h-32l-45 128h-439l-44 -128h-29h-34q-20 0 -45 1q-25 0 -41 9.5t-25.5 23t-13.5 29.5t-4 30v167h911zM163 247q-12 0 -21 -8.5t-9 -21.5t9 -21.5t21 -8.5q13 0 22 8.5t9 21.5t-9 21.5t-22 8.5zM316 123q-8 -26 -14 -48q-5 -19 -10.5 -37t-7.5 -25t-3 -15t1 -14.5
t9.5 -10.5t21.5 -4h37h67h81h80h64h36q23 0 34 12t2 38q-5 13 -9.5 30.5t-9.5 34.5q-5 19 -11 39h-368zM336 498v228q0 11 2.5 23t10 21.5t20.5 15.5t34 6h188q31 0 51.5 -14.5t20.5 -52.5v-227h-327z" />
    

    
    <glyph glyph-name="facebook1" unicode="&#58948;" d="M721.33632 749.787904l0-144.756736c0 0-106.707968 10.63424-133.424128-30.268416-14.61248-22.337536-5.940224-87.786496-7.230464-134.781952l141.517824 0c-11.952128-54.938624-20.52608-92.205056-29.32224-139.762688L579.88608 300.218112l0-449.733632L383.826944-149.51552c0.04096 138.650624-0.027648 300.394496 0 447.977472l-83.424256 0L300.402688 439.9808 382.907392 439.9808c4.226048 103.471104 5.83168 205.979648 57.217024 258.176C497.890304 756.82688 552.98048 749.787904 721.33632 749.787904"  horiz-adv-x="1024" />

    
    <glyph glyph-name="fasong" unicode="&#59020;" d="M63 258.137l309.253-96.749L753.13 495.385 457.987 135.633l330.729-105.435 170.301 675.95L63 258.137zM447.551-103.411 556.427 50.29l-108.876 32.3L447.551-103.411z"  horiz-adv-x="1024" />

    
    <glyph glyph-name="twitter" unicode="&#58949;" d="M639.610888 89.579593 406.626579 89.579593c-69.937862 0-96.904027 46.37419-96.904027 96.115058 0 23.563672 0.035816 43.653219 1.50426 91.281983l328.275605 0c43.151799 0 94.683453 18.907629 94.683453 112.803135 0 86.554308-43.901883 117.279077-94.861508 117.279077l-330.388732-1.431605c0 144.209426 24.602328 232.983285-117.53081 232.983285-73.949222 0-117.064182-21.916149-116.741841-143.242402 0.179079-65.175395 0.967024-53.751205 1.25355-117.064182 0.071631-12.033058-1.360997-24.136723-1.324158-36.204573 0.143263-41.46846-0.465604-83.187631-0.25071-124.907824 0.071631-44.870953-0.143263-118.712729 0.143263-163.54582 1.468444-243.97871 169.741939-294.865681 236.2067-294.865681 44.441165 0 299.234175 0.286526 330.640466 0.286526 31.44006 0 89.274256 6.732331 89.274256 116.993574C730.604298 68.915971 682.761664 89.579593 639.610888 89.579593z"  horiz-adv-x="1024" />

    
    <glyph glyph-name="iconfontcolor85" unicode="&#59079;" d="M1023.992 299.992c0 282.747582-229.244418 511.992-511.992 511.992s-511.992-229.244418-511.992-511.992 229.244418-511.992 511.992-511.992S1023.992 17.244418 1023.992 299.992zM382.818018 88.18731 201.940845 269.048484c-1.743973 1.679974-3.343948 3.535945-4.687927 5.599913-0.65599 0.943985-1.087983 1.967969-1.631975 2.975954-0.367994 0.783988-0.879986 1.503977-1.183982 2.319964-0.687989 1.631975-1.119983 3.279949-1.535976 4.943923-0.063999 0.335995-0.223997 0.65599-0.287996 1.007984-0.367994 1.90397-0.527992 3.807941-0.559991 5.711911 0 0.223997-0.063999 0.431993-0.063999 0.65599 0 0.367994 0.095999 0.719989 0.095999 1.055984-0.319995 8.431868 2.655959 16.943735 9.055859 23.311636l181.661162 181.661162c12.335807 12.319808 32.431493 12.15981 44.943298-0.335995 12.527804-12.463805 12.655802-32.591491 0.319995-44.911298l-128.717989-128.749988 501.080171 0c17.439728-0.032 31.567507-14.335776 31.535507-32.0315 0.063999-17.679724-14.09578-31.9995-31.535507-31.9995L301.283292 260.264621l126.814019-126.782019c12.319808-12.335807 12.15981-32.463493-0.335995-44.943298C415.249512 75.963501 395.153826 75.867502 382.818018 88.18731z"  horiz-adv-x="1024" />

    
    <glyph glyph-name="iconfontcolor86" unicode="&#59080;" d="M0.008 299.992c0-282.747582 229.244418-511.992 511.992-511.992s511.992 229.244418 511.992 511.992-229.244418 511.992-511.992 511.992S0.008 582.739582 0.008 299.992zM641.181982 511.764691l180.877174-180.845174c1.743973-1.679974 3.343948-3.535945 4.687927-5.599913 0.63999-0.975985 1.087983-1.999969 1.615975-3.007953 0.383994-0.783988 0.879986-1.503977 1.199981-2.319964 0.67199-1.599975 1.119983-3.247949 1.519976-4.943923 0.079999-0.335995 0.223997-0.65599 0.287996-1.007984 0.367994-1.871971 0.543992-3.775941 0.575991-5.679911 0-0.255996 0.063999-0.431993 0.063999-0.687989 0-0.335995-0.095999-0.687989-0.111998-1.055984 0.319995-8.431868-2.655959-16.911736-9.055859-23.311636L641.165982 101.675099c-12.335807-12.319808-32.431493-12.15981-44.943298 0.335995-12.527804 12.495805-12.655802 32.591491-0.319995 44.943298l128.733989 128.749988L223.556507 275.70438c-17.439728 0-31.551507 14.335776-31.535507 31.9995-0.047999 17.711723 14.09578 31.9995 31.535507 31.9995L722.716708 339.70338l-126.814019 126.814019c-12.319808 12.335807-12.15981 32.431493 0.335995 44.943298C608.750488 523.9885 628.846174 524.116498 641.181982 511.764691z"  horiz-adv-x="1024" />

    
    <glyph glyph-name="twitter2" unicode="&#58957;" d="M962.285714 578.857143q-38.285714-56-92.571429-95.428571 0.571429-8 0.571429-24 0-74.285714-21.714286-148.285714t-66-142-105.428571-120.285714-147.428571-83.428571-184.571429-31.142857q-154.857143 0-283.428571 82.857143 20-2.285714 44.571429-2.285714 128.571429 0 229.142857 78.857143-60 1.142857-107.428571 36.857143t-65.142857 91.142857q18.857143-2.857143 34.857143-2.857143 24.571429 0 48.571429 6.285714-64 13.142857-106 63.714286t-42 117.428571l0 2.285714q38.857143-21.714286 83.428571-23.428571-37.714286 25.142857-60 65.714286t-22.285714 88q0 50.285714 25.142857 93.142857 69.142857-85.142857 168.285714-136.285714t212.285714-56.857143q-4.571429 21.714286-4.571429 42.285714 0 76.571429 54 130.571429t130.571429 54q80 0 134.857143-58.285714 62.285714 12 117.142857 44.571429-21.142857-65.714286-81.142857-101.714286 53.142857 5.714286 106.285714 28.571429z"  horiz-adv-x="1024" />

    
    <glyph glyph-name="weibiaoti1" unicode="&#58970;" d="M1002.645504 299.731712l-154.392576 0 0-153.612288c0-11.737088-9.555968-21.243904-21.338112-21.243904l-43.956224 0c-11.821056 0-21.395456 9.504768-21.395456 21.243904l0 153.612288L607.17056 299.731712c-11.761664 0-21.356544 9.50272-21.356544 21.243904l0 43.749376c0 11.722752 9.59488 21.270528 21.356544 21.270528l154.394624 0 0 153.56928c0 11.722752 9.572352 21.245952 21.395456 21.245952l43.956224 0c11.782144 0 21.338112-9.525248 21.338112-21.245952l0-153.56928 154.392576 0c11.761664 0 21.354496-9.547776 21.354496-21.270528l0-43.749376C1024 309.234432 1014.407168 299.731712 1002.645504 299.731712zM539.871232 675.30624c-3.633152-2.619392-8.030208-4.016128-12.546048-4.016128l-21.757952 0c28.080128-33.488896 44.558336-81.170432 44.558336-134.84032 0-59.1872-30.12608-115.218432-84.862976-157.845504-42.31168-32.78848-43.995136-41.754624-43.995136-60.540928 0.518144-10.305536 30.046208-43.849728 62.523392-66.715648 75.747328-53.313536 103.950336-105.588736 103.950336-192.927744 0-91.031552-69.59104-169.865216-177.256448-200.951808-34.53952-9.947136-71.87456-15.0016-111.054848-15.0016-43.597824 0-85.583872 5.013504-124.665856 14.841856-75.689984 19.007488-131.708928 55.027712-157.784064 101.433344C5.742592-21.191936 0 0.195328 0 22.397696c0 22.84544 5.500928 45.969408 16.318464 68.831232 41.508864 87.977984 150.820864 147.081216 271.910912 147.081216 1.226752 0 2.353152 0 3.493888 0.022528-9.854976 17.21344-14.65344 35.024896-14.65344 53.833728 0 9.342976 1.243136 18.868224 3.733504 28.532736-127.035392 2.912256-222.072832 95.424512-222.072832 217.46688 0 86.145024 69.208064 170.049536 168.200192 204.01152 29.6448 10.143744 59.83232 15.355904 89.55904 15.355904l271.609856 0c9.273344 0 17.442816-5.967872 20.312064-14.718976 2.891776-8.763392-0.260096-18.368512-7.806976-23.738368L539.871232 675.30624zM140.722176 51.415808c0-69.111808 69.46816-123.244544 158.16704-123.244544 116.996096 0 176.310272 40.12032 176.310272 119.230464 0 7.507968-0.923648 15.253504-2.770944 22.982656-7.888896 30.767104-36.171776 49.936384-79.0016 78.968832-5.881856 3.97312-12.023808 8.13056-18.345984 12.480512-18.526208 5.632-38.15424 8.607744-58.267648 8.82688l-2.48832 0.018432C221.853696 170.67904 140.722176 114.950912 140.722176 51.415808zM409.964544 528.36224c-10.575872 80.050176-68.020224 146.604032-128.055296 148.35712l-2.408448 0.04096c-21.25824 0-40.185856-8.667136-54.636544-25.081856-22.360064-25.376768-31.813632-65.548288-25.892864-110.237696 10.498048-79.95392 69.169152-149.061632 127.975424-150.837248l0.964608 0c0.038912 0 0.038912 0 0.038912 0 22.120448 0 40.78592 8.665088 55.257088 25.09824C405.870592 441.400064 415.885312 483.535616 409.964544 528.36224z"  horiz-adv-x="1025" />

    
    <glyph glyph-name="vk" unicode="&#60528;" d="M1096.045714 598.820571q13.165714-36.571429-85.723429-168.009143-13.677714-18.285714-37.156571-48.566857-44.544-57.124571-51.419429-74.825143-9.728-23.405714 7.972571-46.299429 9.728-11.995429 46.299429-46.884571l0.585143 0 2.267429-2.267429q80.603429-74.825143 109.129143-126.317714 1.682286-2.852571 3.730286-7.168t4.022857-15.140571-0.292571-19.456-14.262857-15.725714-33.718857-7.168l-146.285714-2.267429q-13.677714-2.852571-32.036571 2.852571t-29.696 12.580571l-11.410286 6.875429q-17.115429 11.995429-40.009143 36.571429t-39.131429 44.251429-34.889143 33.133714-32.256 8.850286q-1.682286-0.585143-4.534857-1.974857t-9.728-8.265143-12.288-16.822857-9.728-29.696-3.730286-44.251429q0-8.557714-1.974857-15.725714t-4.315429-10.605714l-2.267429-2.852571q-10.313143-10.825143-30.281143-12.580571l-65.682286 0q-40.594286-2.267429-83.456 9.435429t-75.117714 30.281143-58.88 37.741714-40.301714 32.841143l-14.262857 13.677714q-5.705143 5.705143-15.725714 17.115429t-40.886857 52.004571-60.562286 86.308571-69.997714 120.539429-74.605714 155.428571q-3.437714 9.142857-3.437714 15.433143t1.682286 9.142857l2.267429 3.437714q8.557714 10.825143 32.548571 10.825143l156.598857 1.170286q6.875429-1.170286 13.165714-3.730286t9.142857-4.827429l2.852571-1.682286q9.142857-6.290286 13.677714-18.285714 11.410286-28.598857 26.258286-59.172571t23.405714-46.592l9.142857-16.603429q16.603429-34.304 32.036571-59.465143t27.721143-39.131429 23.698286-22.016 19.456-7.972571 15.433143 2.852571q1.170286 0.585143 2.852571 2.852571t6.875429 12.580571 7.68 26.843429 5.412571 46.299429 0 71.460571q-1.170286 22.820571-5.12 41.691429t-7.972571 26.258286l-3.437714 6.875429q-14.262857 19.456-48.566857 24.576-7.460571 1.170286 2.852571 13.677714 9.728 10.825143 21.723429 17.115429 30.281143 14.848 136.557714 13.677714 46.884571-0.585143 77.165714-7.460571 11.410286-2.852571 19.163429-7.68t11.702857-13.677714 5.997714-18.285714 1.974857-25.965714-0.585143-31.451429-1.462857-40.301714-0.877714-47.177143q0-6.290286-0.585143-23.990857t-0.292571-27.428571 1.974857-23.113143 6.582857-22.308571 12.873143-13.970286q4.534857-1.170286 9.728-2.267429t14.848 6.290286 21.723429 19.748571 29.696 38.253714 38.838857 61.44q34.304 59.465143 61.147429 128.585143 2.267429 5.705143 5.705143 10.020571t6.290286 5.997714l2.267429 1.682286 2.852571 1.462857t7.460571 1.682286 11.410286 0.292571l164.571429 1.170286q22.308571 2.852571 36.571429-1.462857t17.700571-9.435429z"  horiz-adv-x="1098" />

    
    <glyph glyph-name="diqiu1" unicode="&#58953;" d="M1023.968793 383.9028c0 282.258242-228.984556 511.073966-511.452563 511.073966-282.473122 0-511.462795-228.815722-511.462795-511.073966 0-260.737573 195.390741-475.854231 447.837044-507.156 14.231147-2.999101 31.564741-4.746785 52.209522-4.746785 5.795601 0 11.384509 0.304924 16.78207 0.857471C797.877943-124.265179 1023.968793 103.424985 1023.968793 383.9028zM950.836169 376.671601c-1.471411 25.500029-4.8399 50.460814-9.969375 74.718637 0.455339 8.661681 0.579151 16.868022 0.346877 24.49726 6.343032-29.660502 9.687986-60.432236 9.687986-91.984698C950.902679 381.486943 950.875051 379.078249 950.836169 376.671601zM74.120572 383.9028c0 30.977405 3.225236 61.200685 9.345202 90.360825 18.931886-20.247766 63.554125-19.769915 74.436224 10.483039 19.471131-11.604504 45.637286-13.717484 45.637286-36.912165 0-76.550227 2.725897-158.618759 72.279247-159.886547 1.958471-0.025581 38.788778-13.957944 56.316786-59.416164 6.060619-15.711767 30.032959 0 56.321902 0 13.124008 0 0-22.110053 0-69.921714 0-47.626454 102.680569-120.959633 102.680569-120.959633-0.475804-31.525858 0.818588-57.017702 3.442161-77.38314-23.177287 0.426689-42.709813-2.645062-58.055262-7.868674C230.627375-11.644909 74.120572 167.857045 74.120572 383.9028zM620.440877-40.783561c-2.272604 11.126653-12.215375 17.220015-30.356301 12.451742 14.474677 61.640676 21.511461 96.169728 51.728602 122.387045 43.719746 37.898564 5.206218 80.04355-28.063232 75.076769-26.222433-3.958895-9.651149 32.467234-33.055594 34.481983-23.404445 1.958471-53.969486 48.511552-87.653346 64.530291-17.855443 8.479545-35.402894 31.203539-62.940184 32.221658-24.407215 0.946492-60.07615-20.637618-60.07615-3.999824 0 53.590889-5.426213 91.832236-6.541539 107.104012-0.900446 12.269607-8.020113 4.132845 24.974087 3.339838 17.956744-0.48092 9.185577 36.067997 26.959162 37.495409 17.456382 1.381367 59.052916-16.341056 69.650557-9.277668 9.845564 6.577352 72.371338-164.12683 72.371338-28.216717 0 16.126177-8.351641 44.163828 0 59.436629 33.030013 60.352424 63.952163 109.539311 61.175104 116.734697-1.575781 4.050986-33.792323 7.39594-59.569649-1.253462-8.699541-2.904963 2.766826-16.530355-9.727892-19.440434-46.814006-10.807404-88.175196 12.622623-73.691309 34.645701 14.831785 22.570509 68.571044 9.845564 73.282016 55.124718 2.710549 25.935927 4.956549 55.974003 6.45968 78.298935 63.004648-9.852726 56.069163 81.7677-37.613081 91.574381 189.525561-2.217349 350.128371-124.61565 409.062591-294.48692-2.980683 2.718734-6.448425 4.371258-10.453365 4.774413-28.324157 70.749511-97.074267 19.547874-73.752703-42.855112-124.959457-96.057172-92.973143-163.052434-51.9179-201.416569 21.603552-20.166931 42.200242-50.496628 55.610754-72.279247-14.596442-42.561444 53.781211-25.518448 87.503954 46.709636C890.911457 113.615379 771.249286-2.633281 620.440877-40.783561z"  horiz-adv-x="1024" />

    
    <glyph glyph-name="dayinji" unicode="&#59034;" d="M1051.016951 709.776305 880.27096 709.776305 880.27096 896 224.78832 896l0-186.216872L53.743828 709.783128C24.106942 709.783128 0 685.568726 0 655.938662l0-456.701434 224.78832 0 0-77.842241 249.502499-249.395038L880.27096-128.000051 880.27096 196.620654l224.588751 0L1104.859711 655.938662C1104.859711 685.568726 1080.75277 709.776305 1051.016951 709.776305L1051.016951 709.776305 1051.016951 709.776305zM288.172878 832.613736l528.720347 0 0-122.837431L288.172878 709.776305 288.172878 832.613736 288.172878 832.613736 288.172878 832.613736zM942.850418 284.506175 880.27096 284.506175l0 125.256142-63.377735 0 0-474.58932L557.151289-64.827002c-94.107988 0-48.812591 223.075777-48.812591 223.075777s-217.453724-52.923377-220.264751 46.707733l0 204.80581-63.285626 0 0-122.637862L162.009293 287.124455 162.009293 500.452043l780.740488 0 0-215.94075 0.100637 0L942.850418 284.506175zM987.94454 577.796214c-23.70098 0-42.989263 19.283165-42.989263 43.089901 0 23.706098 19.182528 42.989263 42.989263 42.989263s43.089901-19.283165 43.089901-42.989263C1031.034441 597.079379 1011.751275 577.796214 987.94454 577.796214L987.94454 577.796214 987.94454 577.796214zM741.960942 401.020502 377.963689 401.020502l0-63.370912 363.997253 0L741.960942 401.020502 741.960942 401.020502 741.960942 401.020502zM377.963689 213.498754l363.997253 0 0 63.277098L377.963689 276.775852 377.963689 213.498754 377.963689 213.498754 377.963689 213.498754zM377.963689 213.498754"  horiz-adv-x="1105" />

    
    <glyph glyph-name="h" unicode="&#59041;" d="M714.361905 894.537143l228.205714 0L942.567619-128 714.361905-128l0 402.285714L307.687619 274.285714 307.687619-128 79.481905-128 79.481905 894.537143l228.205714 0L307.687619 467.382857 714.361905 467.382857 714.361905 894.537143z"  horiz-adv-x="1024" />

    
    <glyph glyph-name="computer" unicode="&#58881;" d="M896 810.667h-768c-46.933 0-85.333-38.4-85.333-85.333v-512c0-46.933 38.4-85.333 85.333-85.333h298.667v-85.333h-85.333v-85.333h341.333v85.333h-85.333v85.333h298.667c46.933 0 85.333 38.4 85.333 85.333v512c0 46.933-38.4 85.333-85.333 85.333zM896 213.333h-768v512h768v-512z"  horiz-adv-x="1024" />

    
    <glyph glyph-name="phone" unicode="&#58882;" d="M661.333 853.333h-341.333c-58.88 0-106.667-47.787-106.667-106.667v-725.333c0-58.88 47.787-106.667 106.667-106.667h341.333c58.88 0 106.667 47.787 106.667 106.667v725.333c0 58.88-47.787 106.667-106.667 106.667zM490.667-42.667c-35.413 0-64 28.587-64 64s28.587 64 64 64 64-28.587 64-64-28.587-64-64-64zM682.667 128h-384v597.333h384v-597.333z"  horiz-adv-x="1024" />

    
    <glyph glyph-name="menu" unicode="&#58883;" d="M85.333 234.667v-85.333h853.333v85.333h-853.333zM85.333 448v-85.333h853.333v85.333l-853.333 0zM85.333 661.333v-85.333h853.333v85.333h-853.333z"  horiz-adv-x="1024" />

    
    <glyph glyph-name="address" unicode="&#58884;" d="M512 810.667c-165.12 0-298.667-133.547-298.667-298.667 0-224 298.667-554.667 298.667-554.667s298.667 330.667 298.667 554.667c0 165.12-133.547 298.667-298.667 298.667zM512 405.333c-58.88 0-106.667 47.787-106.667 106.667s47.787 106.667 106.667 106.667 106.667-47.787 106.667-106.667-47.787-106.667-106.667-106.667z"  horiz-adv-x="1024" />

    
    <glyph glyph-name="tell" unicode="&#58885;" d="M282.453 435.627c61.44-120.747 160.427-219.307 281.173-281.173l93.867 93.867c11.52 11.52 28.587 15.317 43.52 10.24 47.787-15.829 99.413-24.32 152.32-24.32 23.467 0 42.667-19.2 42.667-42.667v-148.907c0-23.467-19.2-42.667-42.667-42.667-400.64 0-725.333 324.651-725.333 725.333 0 23.467 19.2 42.667 42.667 42.667h149.333c23.467 0 42.667-19.2 42.667-42.667 0-53.333 8.533-104.533 24.32-152.32 4.693-14.933 1.28-31.573-10.667-43.52l-93.867-93.867z"  horiz-adv-x="1024" />

    
    <glyph glyph-name="large" unicode="&#58886;" d="M661.333 298.667h-33.707l-11.947 11.52c41.813 48.64 66.987 111.787 66.987 180.48 0 153.173-124.16 277.333-277.333 277.333s-277.333-124.16-277.333-277.333 124.16-277.333 277.333-277.333c68.693 0 131.84 25.173 180.48 66.987l11.52-11.947v-33.707l213.333-212.907 63.573 63.573-212.907 213.333zM405.333 298.667c-106.24 0-192 85.76-192 192s85.76 192 192 192 192-85.76 192-192-85.76-192-192-192zM512 469.333h-85.333v-85.333h-42.667v85.333h-85.333v42.667h85.333v85.333h42.667v-85.333h85.333v-42.667z"  horiz-adv-x="1024" />

    
    <glyph glyph-name="more" unicode="&#58887;" d="M512 554.667c46.933 0 85.333 38.4 85.333 85.333s-38.4 85.333-85.333 85.333c-46.933 0-85.333-38.4-85.333-85.333s38.4-85.333 85.333-85.333zM512 469.333c-46.933 0-85.333-38.4-85.333-85.333 0-46.933 38.4-85.333 85.333-85.333 46.933 0 85.333 38.4 85.333 85.333 0 46.933-38.4 85.333-85.333 85.333zM512 213.333c-46.933 0-85.333-38.4-85.333-85.333s38.4-85.333 85.333-85.333c46.933 0 85.333 38.4 85.333 85.333s-38.4 85.333-85.333 85.333z"  horiz-adv-x="1024" />

    
    <glyph glyph-name="close" unicode="&#58888;" d="M810.667 622.507l-60.16 60.16-238.507-238.507-238.507 238.507-60.16-60.16 238.507-238.507-238.507-238.507 60.16-60.16 238.507 238.507 238.507-238.507 60.16 60.16-238.507 238.507 238.507 238.507z"  horiz-adv-x="1024" />

    
    <glyph glyph-name="arrow" unicode="&#58889;" d="M938.667 384l-170.667 170.667v-128l-640 0v-85.333h640v-128l170.667 170.667z"  horiz-adv-x="1024" />

    
    <glyph glyph-name="share" unicode="&#58890;" d="M768 209.92c-32.427 0-61.397-12.8-83.627-32.853l-304.213 177.067c2.133 9.813 3.84 19.627 3.84 29.867s-1.707 20.053-3.84 29.867l300.8 175.36c23.040-21.333 53.333-34.56 87.040-34.56 70.827 0 128 57.173 128 128s-57.173 128-128 128-128-57.173-128-128c0-10.24 1.707-20.053 3.84-29.867l-300.8-175.36c-23.040 21.333-53.333 34.56-87.040 34.56-70.827 0-128-57.173-128-128s57.173-128 128-128c33.707 0 64 13.269 87.040 34.603l303.787-177.493c-2.176-9.003-3.413-18.389-3.413-27.733 0-68.651 55.936-124.587 124.587-124.587s124.587 55.936 124.587 124.587-55.936 124.544-124.587 124.544z"  horiz-adv-x="1024" />

    
    <glyph glyph-name="link" unicode="&#58891;" d="M166.4 384c0 72.96 59.307 132.267 132.267 132.267h170.667l-0 81.067h-170.667c-117.76 0-213.333-95.573-213.333-213.333s95.573-213.333 213.333-213.333h170.667v81.067l-170.667-0c-72.96 0-132.267 59.307-132.267 132.267zM341.333 341.333h341.333v85.333l-341.333 0v-85.333zM725.333 597.333h-170.667v-81.067h170.667c72.96 0 132.267-59.307 132.267-132.267s-59.307-132.267-132.267-132.267h-170.667l0-81.067h170.667c117.76 0 213.333 95.573 213.333 213.333s-95.573 213.333-213.333 213.333z"  horiz-adv-x="1024" />

    
    <glyph glyph-name="password" unicode="&#58892;" d="M768 554.667h-42.667v85.333c0 117.76-95.573 213.333-213.333 213.333s-213.333-95.573-213.333-213.333v-85.333h-42.667c-46.933 0-85.333-38.4-85.333-85.333v-426.667c0-46.933 38.4-85.333 85.333-85.333h512c46.933 0 85.333 38.4 85.333 85.333v426.667c0 46.933-38.4 85.333-85.333 85.333zM512 170.667c-46.933 0-85.333 38.4-85.333 85.333s38.4 85.333 85.333 85.333c46.933 0 85.333-38.4 85.333-85.333s-38.4-85.333-85.333-85.333zM644.267 554.667h-264.533v85.333c0 72.96 59.307 132.267 132.267 132.267s132.267-59.307 132.267-132.267v-85.333z"  horiz-adv-x="1024" />

    
    <glyph glyph-name="confirm" unicode="&#58893;" d="M384 204.8l-179.2 179.2-59.733-59.733 238.933-238.933 512 512-59.733 59.733-452.267-452.267z"  horiz-adv-x="1024" />

    
    <glyph glyph-name="time" unicode="&#58894;" d="M511.573 810.667c-235.52 0-426.24-191.147-426.24-426.667s190.72-426.667 426.24-426.667c235.947 0 427.093 191.147 427.093 426.667 0 235.52-191.147 426.667-427.093 426.667zM512 42.667c-188.587 0-341.333 152.747-341.333 341.333s152.747 341.333 341.333 341.333 341.333-152.747 341.333-341.333-152.747-341.333-341.333-341.333zM533.333 597.333h-64v-256l224-134.4 32 52.48-192 113.92v224z"  horiz-adv-x="1024" />

    
    <glyph glyph-name="enter" unicode="&#58895;" d="M128 160v-160h160l471.936 471.893-160 160-471.936-471.893zM883.627 595.627c16.64 16.64 16.64 43.52 0 60.16l-99.84 99.84c-16.64 16.64-43.563 16.64-60.16 0l-78.080-78.080 160-160 78.080 78.080z"  horiz-adv-x="1024" />

    
    <glyph glyph-name="file" unicode="&#58896;" d="M597.333 810.667h-341.333c-46.933 0-84.907-38.4-84.907-85.333l-0.427-682.667c0-46.933 37.973-85.333 84.907-85.333l512.427-0c46.933 0 85.333 38.4 85.333 85.333v512l-256 256zM682.667 128h-341.333v85.333h341.333l0-85.333zM682.667 298.667h-341.333v85.333h341.333l0-85.333zM554.667 512v234.667l234.667-234.667h-234.667z"  horiz-adv-x="1024" />

    
    <glyph glyph-name="down" unicode="&#58897;" d="M707.84 529.493l-195.84-195.413-195.84 195.413-60.16-60.16 256-256 256 256-60.16 60.16z"  horiz-adv-x="1024" />

    
    <glyph glyph-name="search" unicode="&#58899;" d="M661.333 298.667h-33.707l-11.947 11.52c41.813 48.64 66.987 111.787 66.987 180.48 0 153.173-124.16 277.333-277.333 277.333s-277.333-124.16-277.333-277.333 124.16-277.333 277.333-277.333c68.693 0 131.84 25.173 180.48 66.987l11.52-11.947v-33.707l213.333-212.907 63.573 63.573-212.907 213.333zM405.333 298.667c-106.24 0-192 85.76-192 192s85.76 192 192 192 192-85.76 192-192-85.76-192-192-192z"  horiz-adv-x="1024" />

    
    <glyph glyph-name="video" unicode="&#58900;" d="M512 810.667c-235.52 0-426.667-191.147-426.667-426.667s191.147-426.667 426.667-426.667c235.52 0 426.667 191.147 426.667 426.667 0 235.52-191.147 426.667-426.667 426.667zM426.667 192v384l256-192-256-192z"  horiz-adv-x="1024" />

    
    <glyph glyph-name="date" unicode="&#58901;" d="M725.333 469.333h-426.667v-85.333h426.667l-0 85.333zM810.667 768h-42.667v85.333h-85.333v-85.333h-341.333v85.333h-85.333v-85.333h-42.667c-47.36 0-84.907-38.4-84.907-85.333l-0.427-597.333c0-46.933 37.973-85.333 85.333-85.333h597.333c46.933 0 85.333 38.4 85.333 85.333l0 597.333c0 46.933-38.4 85.333-85.333 85.333zM810.667 85.333h-597.333v469.333h597.333l0-469.333zM597.333 298.667h-298.667v-85.333h298.667l-0 85.333z"  horiz-adv-x="1024" />

    
    <glyph glyph-name="up" unicode="&#58902;" d="M512 554.667l-256-256 60.16-60.16 195.84 195.413 195.84-195.413 60.16 60.16-256 256z"  horiz-adv-x="1024" />

    
    <glyph glyph-name="upthrow" unicode="&#58903;" d="M298.667 298.667l213.333 213.333 213.333-213.333h-426.667z"  horiz-adv-x="1024" />

    
    <glyph glyph-name="collapse" unicode="&#58904;" d="M810.667 341.333h-597.333v85.333h597.333l0-85.333z"  horiz-adv-x="1024" />

    
    <glyph glyph-name="icon-narrow" unicode="&#58905;" d="M661.333 298.667h-33.707l-11.947 11.52c41.813 48.64 66.987 111.787 66.987 180.48 0 153.173-124.16 277.333-277.333 277.333s-277.333-124.16-277.333-277.333 124.16-277.333 277.333-277.333c68.693 0 131.84 25.173 180.48 66.987l11.52-11.947v-33.707l213.333-212.907 63.573 63.573-212.907 213.333zM405.333 298.667c-106.24 0-192 85.76-192 192s85.76 192 192 192 192-85.76 192-192-85.76-192-192-192zM298.667 512h213.333v-42.667h-213.333v42.667z"  horiz-adv-x="1024" />

    
    <glyph glyph-name="downthrow" unicode="&#58906;" d="M298.667 469.333l213.333-213.333 213.333 213.333-426.667-0z"  horiz-adv-x="1024" />

    
    <glyph glyph-name="download" unicode="&#58907;" d="M682.667 341.333h-128v426.667h-85.333v-426.667h-128l170.667-170.667 170.667 170.667zM170.667 85.333v-85.333h682.667v85.333h-682.667z"  horiz-adv-x="1024" />

    
    <glyph glyph-name="marquee" unicode="&#58908;" d="M512 810.667c-235.52 0-426.667-191.147-426.667-426.667s191.147-426.667 426.667-426.667c235.52 0 426.667 191.147 426.667 426.667 0 235.52-191.147 426.667-426.667 426.667zM512 42.667c-188.587 0-341.333 152.747-341.333 341.333s152.747 341.333 341.333 341.333 341.333-152.747 341.333-341.333-152.747-341.333-341.333-341.333z"  horiz-adv-x="1024" />

    
    <glyph glyph-name="select" unicode="&#58909;" d="M512 597.333c-117.76 0-213.333-95.573-213.333-213.333s95.573-213.333 213.333-213.333 213.333 95.573 213.333 213.333-95.573 213.333-213.333 213.333zM512 810.667c-235.52 0-426.667-191.147-426.667-426.667s191.147-426.667 426.667-426.667c235.52 0 426.667 191.147 426.667 426.667 0 235.52-191.147 426.667-426.667 426.667zM512 42.667c-188.587 0-341.333 152.747-341.333 341.333s152.747 341.333 341.333 341.333 341.333-152.747 341.333-341.333-152.747-341.333-341.333-341.333z"  horiz-adv-x="1024" />

    
    <glyph glyph-name="mail" unicode="&#58910;" d="M853.333 725.333h-682.667c-46.933 0-84.907-38.4-84.907-85.333l-0.427-512c0-46.933 38.4-85.333 85.333-85.333h682.667c46.933 0 85.333 38.4 85.333 85.333l0 512c0 46.933-38.4 85.333-85.333 85.333zM853.333 554.667l-341.333-213.333-341.333 213.333v85.333l341.333-213.333 341.333 213.333v-85.333z"  horiz-adv-x="1024" />

    
    <glyph glyph-name="preview" unicode="&#58912;" d="M512 704c-213.333 0-395.52-132.693-469.333-320 73.813-187.349 256-320 469.333-320s395.52 132.651 469.333 320c-73.813 187.307-256 320-469.333 320zM512 170.667c-117.76 0-213.333 95.573-213.333 213.333s95.573 213.333 213.333 213.333 213.333-95.573 213.333-213.333-95.573-213.333-213.333-213.333zM512 512c-70.827 0-128-57.173-128-128s57.173-128 128-128 128 57.173 128 128-57.173 128-128 128z"  horiz-adv-x="1024" />

    
    <glyph glyph-name="expansion" unicode="&#58913;" d="M810.667 341.333h-256v-256h-85.333v256h-256v85.333h256l-0 256h85.333v-256h256l0-85.333z"  horiz-adv-x="1024" />

    
    <glyph glyph-name="user" unicode="&#58914;" d="M512 384c94.293 0 170.667 76.373 170.667 170.667s-76.373 170.667-170.667 170.667-170.667-76.373-170.667-170.667 76.373-170.667 170.667-170.667zM512 298.667c-113.92 0-341.333-57.173-341.333-170.667v-85.333h682.667v85.333c-0 113.493-227.413 170.667-341.333 170.667z"  horiz-adv-x="1024" />

    
    <glyph glyph-name="home" unicode="&#58915;" d="M426.667 42.667v256h170.667v-256h213.333v341.333h128l-426.667 384-426.667-384h128v-341.333h213.333z"  horiz-adv-x="1024" />

    
    <glyph glyph-name="left" unicode="&#58916;" d="M657.493 579.84l-60.16 60.16-256-256 256-256 60.16 60.16-195.413 195.84 195.413 195.84z"  horiz-adv-x="1024" />

    
    <glyph glyph-name="right" unicode="&#58880;" d="M426.667 640l-60.16-60.16 195.413-195.84-195.413-195.84 60.16-60.16 256 256-256 256z"  horiz-adv-x="1024" />

    
    <glyph glyph-name="code" unicode="&#58898;" d="M402.304 493.696v274.304h-274.304v-274.347l274.304-0zM182.869 548.565v164.523h164.523v-164.523h-164.523zM237.696 658.261h54.869v-54.869h-54.869v54.869zM566.827 658.261h-54.827v54.827h54.827v54.912h-109.696v-164.565h54.869v-54.869h54.827zM512 384h54.827v109.696h-54.827v54.869h-54.869v-109.739h54.869zM676.565 768h-54.869v-274.304h274.304v274.304h-219.435zM841.131 548.565h-164.523v164.523h164.523l0-164.523zM731.435 658.261h54.827v-54.869h-54.827v54.869zM128 438.827v-109.696h54.869v54.869h54.827v54.827zM566.827 274.261v54.869h-54.827v54.869h-54.869v54.827h-164.565v-54.827h-54.869v-54.869h109.739v54.869h54.869v-54.869h54.827v-54.869h54.869v-54.827h54.827zM621.696 109.653h54.869v54.912h-54.869v54.869h-54.869v-54.869h-54.827v54.869h-54.869v-109.781h54.869v-54.827h54.827v54.827zM676.565 219.435h54.827v-54.827h-54.827v54.827zM621.696 274.261h54.869v-54.827h-54.869v54.827zM621.696 329.131h54.869v-54.869h54.869v-54.827h54.827v109.696h-54.827v54.869h-54.869v54.827h-54.869v-54.827h-54.869v-54.869zM841.131 329.131h54.869v-109.696h-54.869v109.696zM731.435 438.827h54.827v-54.827h-54.827v54.827zM786.261 384h54.869v-54.869h-54.869v54.869zM841.131 438.827h54.869v-54.827h-54.869v54.827zM786.261 219.435h54.869v-54.827h-54.869v54.827zM841.131 164.565h54.869v-54.912h-54.869v54.912zM841.131 54.827h54.869v-54.827h-54.869v54.827zM731.435 109.653h-54.869v-54.827h54.869v-54.827h54.827v164.565h-54.827zM566.827 54.827h109.739v-54.827h-109.739v54.827zM457.131 54.827h54.869v-54.827h-54.869v54.827zM128 219.435v-219.435h274.304v274.219l-274.304-0v-54.784zM347.435 219.435v-164.565l-164.565-0v164.565l164.565 0zM237.696 164.565h54.869v-54.912h-54.869v54.912z"  horiz-adv-x="1024" />

    
    <glyph glyph-name="shopping" unicode="&#58911;" d="M298.667 128c-46.933 0-84.907-38.4-84.907-85.333s37.973-85.333 84.907-85.333 85.333 38.4 85.333 85.333-38.4 85.333-85.333 85.333zM42.667 810.667v-85.333h85.333l153.6-323.84-57.6-104.533c-6.827-11.947-10.667-26.027-10.667-40.96 0-46.933 38.4-85.333 85.333-85.333h512v85.333h-494.080c-5.973 0-10.667 4.651-10.667 10.667l1.28 5.12 38.4 69.547h317.867c32 0 60.16 17.493 74.667 43.947l152.747 276.907c3.413 5.973 5.12 13.227 5.12 20.48 0 23.467-19.2 42.667-42.667 42.667l-631.040-0-40.107 85.333h-139.52zM725.333 128c-46.933 0-84.907-38.4-84.907-85.333s37.973-85.333 84.907-85.333 85.333 38.4 85.333 85.333-38.4 85.333-85.333 85.333z"  horiz-adv-x="1024" />

    
    <glyph glyph-name="taxi" unicode="&#58917;" d="M807.253 639.573c-8.491 25.173-32.427 43.093-60.587 43.093h-106.667v85.333h-256v-85.333h-106.667c-28.16 0-51.627-17.92-60.587-43.093l-88.747-255.573v-341.333c0-23.467 19.2-42.667 42.667-42.667h42.667c23.467 0 42.667 19.2 42.667 42.667v42.667h512v-42.667c0-23.467 19.2-42.667 42.667-42.667h42.667c23.467 0 42.667 19.2 42.667 42.667v341.333l-88.747 255.573zM277.333 213.333c-35.413 0-64 28.587-64 64s28.587 64 64 64 64-28.587 64-64-28.587-64-64-64zM746.667 213.333c-35.413 0-64 28.587-64 64s28.587 64 64 64 64-28.587 64-64-28.587-64-64-64zM213.333 426.667l64 192h469.333l64-192h-597.333z"  horiz-adv-x="1024" />

    
    <glyph glyph-name="subway" unicode="&#58918;" d="M810.667 173.269v360.064c0 119.040-111.317 145.067-256.427 148.907l32.427 64.427h138.667v64h-426.667v-64h202.667l-32.427-64.853c-133.547-3.84-255.573-30.293-255.573-148.48v-360.064c0-61.909 50.773-113.493 110.507-126.763l-67.84-67.84v-21.333h95.147l85.333 85.333 160.853 0 85.333-85.333h85.333v21.333l-64 64h-3.413c72.064 0 110.080 58.453 110.080 130.603zM512 106.667c-35.413 0-64 28.587-64 64s28.587 64 64 64 64-28.587 64-64-28.587-64-64-64zM725.333 298.667h-426.667v213.333h426.667l-0-213.333z"  horiz-adv-x="1024" />

    
    <glyph glyph-name="airport" unicode="&#58919;" d="M896 213.333v85.333l-341.333 213.333v234.667c0 35.413-28.587 64-64 64s-64-28.587-64-64v-234.667l-341.333-213.333v-85.333l341.333 106.667v-234.667l-85.333-64-0-64 149.333 42.667 149.333-42.667v64l-85.333 64v234.667l341.333-106.667z"  horiz-adv-x="1024" />

    
    <glyph glyph-name="app1" unicode="&#58921;" d="M511.104 815.786667C271.786667 815.786667 77.781333 621.781333 77.781333 382.464c0-239.274667 194.005333-433.28 433.322667-433.28s433.322667 194.005333 433.322667 433.28C944.426667 621.781333 750.421333 815.786667 511.104 815.786667zM511.104-29.482667c-227.541333 0-411.989333 184.405333-411.989333 411.946667S283.562667 794.453333 511.104 794.453333c227.541333 0 411.989333-184.448 411.989333-411.989333S738.688-29.482667 511.104-29.482667zM321.365333 327.125333 245.376 327.125333l-14.72-49.664L168.192 277.461333 251.562667 532.906667 283.306667 532.906667l0-0.213333L283.477333 532.906667l31.744 0 83.541333-255.445333L336.298667 277.461333 321.365333 327.125333zM259.072 372.693333l48.597333 0-23.850667 79.317333L282.752 452.010667 259.072 372.693333zM476.288 365.013333l0-87.552-59.306667 0L416.981333 532.906667l97.536 0c30.293333 0 54.314667-7.765333 72.106667-23.168 17.749333-15.445333 26.666667-35.754667 26.666667-60.885333 0-25.173333-8.917333-45.397333-26.666667-60.8-17.792-15.36-41.813333-23.082667-72.106667-23.082667L476.288 364.970667zM476.288 410.624l38.229333 0c12.885333 0 22.698667 3.541333 29.44 10.624 6.784 7.04 10.154667 16.170667 10.154667 27.264 0 11.392-3.328 20.650667-10.069333 27.904-6.698667 7.253333-16.554667 10.88-29.525333 10.88l-38.229333 0L476.288 410.624zM705.408 365.013333l0-87.552-59.306667 0L646.101333 532.906667l97.536 0c30.293333 0 54.314667-7.765333 72.064-23.168 17.834667-15.445333 26.666667-35.754667 26.666667-60.885333 0-25.173333-8.832-45.397333-26.666667-60.8-17.749333-15.36-41.770667-23.082667-72.064-23.082667L705.408 364.970667zM705.408 410.624l38.229333 0c12.885333 0 22.656 3.541333 29.482667 10.624 6.741333 7.04 10.154667 16.170667 10.154667 27.264 0 11.392-3.370667 20.650667-10.069333 27.904-6.741333 7.253333-16.597333 10.88-29.568 10.88l-38.229333 0L705.408 410.624z"  horiz-adv-x="1024" />

    
    <glyph glyph-name="weixin" unicode="&#58920;" d="M511.104 815.786667C271.786667 815.786667 77.781333 621.781333 77.781333 382.464c0-239.274667 194.005333-433.28 433.322667-433.28s433.322667 194.005333 433.322667 433.28C944.426667 621.781333 750.421333 815.786667 511.104 815.786667zM511.104-29.482667c-227.541333 0-411.989333 184.405333-411.989333 411.946667S283.562667 794.453333 511.104 794.453333c227.541333 0 411.989333-184.448 411.989333-411.989333S738.688-29.482667 511.104-29.482667zM595.754667 468.565333c6.442667 0 12.885333-0.426667 19.328-1.066667-17.28 80.810667-103.722667 140.757333-202.24 140.757333-110.165333 0-200.533333-75.050667-200.533333-170.538667 0-55.04 29.994667-100.309333 80.170667-135.424L272.469333 241.92l70.229333 35.328c25.045333-4.906667 45.269333-10.026667 70.144-10.026667 6.229333 0 12.416 0.213333 18.645333 0.896-4.010667 13.312-6.229333 27.52-6.229333 41.941333C425.258667 397.568 500.48 468.565333 595.754667 468.565333zM487.893333 522.965333c15.104 0 25.088-9.984 25.088-25.088s-9.984-25.045333-25.088-25.045333-30.208 9.984-30.208 25.045333C457.898667 512.981333 473.002667 522.965333 487.893333 522.965333zM347.562667 472.832c-15.104 0-30.208 9.984-30.208 25.045333s15.104 25.088 30.208 25.088c15.104 0 25.088-9.984 25.088-25.088C372.650667 483.029333 362.624 472.832 347.562667 472.832zM778.709333 312.277333c0 80.128-80.170667 145.450667-170.282667 145.450667-95.445333 0-170.538667-65.28-170.538667-145.450667 0-80.384 75.093333-145.408 170.538667-145.408 20.010667 0 40.192 5.12 60.16 9.984l55.04-30.208-15.061333 50.218667C748.757333 227.029333 778.709333 267.221333 778.709333 312.277333zM553.173333 337.408c-10.026667 0-20.010667 9.898667-20.010667 19.968 0 9.984 9.984 19.968 20.010667 19.968 15.104 0 25.045333-9.984 25.045333-19.968C578.218667 347.349333 568.234667 337.408 553.173333 337.408zM663.466667 337.408c-9.984 0-19.925333 9.898667-19.925333 19.968 0 9.984 9.898667 19.968 19.925333 19.968 15.104 0 25.130667-9.984 25.130667-19.968C688.597333 347.349333 678.314667 337.408 663.466667 337.408z"  horiz-adv-x="1024" />

    
    <glyph glyph-name="twitter1" unicode="&#58922;" d="M510.72 815.872c-239.317333 0-433.322667-194.005333-433.322667-433.322667 0-239.232 194.005333-433.237333 433.322667-433.237333 239.274667 0 433.28 194.005333 433.28 433.237333C944 621.866667 749.994667 815.872 510.72 815.872zM510.72-29.354667c-227.541333 0-411.989333 184.405333-411.989333 411.904 0 227.541333 184.448 411.989333 411.989333 411.989333s411.946667-184.448 411.946667-411.989333C922.666667 155.050667 738.261333-29.354667 510.72-29.354667zM630.041667 278.041667l-126.75 0c-38.016667 0-52.708333 25.25-52.708333 52.291667 0 12.791667 0.041667 23.75 0.833333 49.641667L630 379.975c23.5 0 51.5 10.308333 51.5 61.35 0 47.1-23.875 63.791667-51.583333 63.791667l-179.725-0.766667c0 78.458333 13.35 126.725-63.933333 126.725-40.225 0-63.683333-11.933333-63.516667-77.891667 0.083333-35.475 0.525-29.266667 0.691667-63.708333 0.041667-6.516667-0.75-13.1-0.733333-19.708333 0.083333-22.541667-0.233333-45.208333-0.125-67.933333 0.041667-24.391667-0.058333-64.541667 0.058333-88.916667 0.808333-132.75 92.333333-160.416667 128.475-160.416667 24.183333 0 162.808333 0.166667 179.85 0.166667 17.125 0 48.541667 3.666667 48.541667 63.625C679.5 266.833333 653.541667 278.041667 630.041667 278.041667z"  horiz-adv-x="1024" />

    
    <glyph glyph-name="in1" unicode="&#58923;" d="M510.72 815.872c-239.317333 0-433.322667-194.005333-433.322667-433.322667 0-239.232 194.005333-433.237333 433.322667-433.237333 239.274667 0 433.28 194.005333 433.28 433.237333C944 621.866667 749.994667 815.872 510.72 815.872zM510.72-29.354667c-227.541333 0-411.989333 184.405333-411.989333 411.904 0 227.541333 184.448 411.989333 411.989333 411.989333s411.946667-184.448 411.946667-411.989333C922.666667 155.050667 738.261333-29.354667 510.72-29.354667zM385.225 160 284.875 160 284.875 493.625l100.35 0L385.225 160 385.225 160zM751.375 160l-100.416667 0L650.958333 337.166667c0 45.75-16.208333 69.375-48.708333 69.375-26.541667 0-42.791667-13.291667-50.166667-38.375l0-208.166667L451.683333 160c0 0 1.483333 299.666667 0 333.625l78.266667 0 5.875-66.391667 1.458333 0c20.75 33.933333 53.166667 56.058333 98.958333 56.058333 33.916667 0 61.958333-8.85 82.666667-33.933333 20.625-23.6 32.458333-56.1 32.458333-100.35L751.366667 160 751.375 160 751.375 160zM386.708333 576.291667c0-28.041667-23.6-50.166667-51.641667-50.166667-28.083333 0-51.683333 22.125-51.683333 50.166667 0 28.083333 23.6 50.208333 51.683333 50.208333C363.1 626.5 386.708333 604.375 386.708333 576.291667L386.708333 576.291667z"  horiz-adv-x="1024" />

    
    <glyph glyph-name="facebook" unicode="&#58924;" d="M509.824 817.109333c-239.317333 0-433.322667-194.005333-433.322667-433.322667 0-239.232 194.005333-433.237333 433.322667-433.237333 239.274667 0 433.28 194.005333 433.28 433.237333C943.104 623.104 749.141333 817.109333 509.824 817.109333zM509.824-28.117333c-227.541333 0-411.989333 184.405333-411.989333 411.904 0 227.541333 184.448 411.989333 411.989333 411.989333s411.946667-184.448 411.946667-411.989333C921.770667 156.288 737.365333-28.117333 509.824-28.117333zM554.625 110.25 440.75 110.25 440.75 383.833333l-68.416667 0L372.333333 474.875l68.416667 0 0 55.75c0 76 22.958333 126.791667 112.666667 126.791667l69.833333 0 0-91.166667-41.791667 0c-34.708333 0-37.125-16.708333-37.125-40.916667l-0.125-50.25 84.416667 0-9.75-91.166667L555.083333 383.916667 554.625 110.25 554.625 110.25z"  horiz-adv-x="1024" />

    
    <glyph glyph-name="youtube" unicode="&#58925;" d="M509.909333 817.621333c-239.317333 0-433.322667-194.005333-433.322667-433.322667 0-239.274667 194.005333-433.28 433.322667-433.28 239.274667 0 433.28 194.005333 433.28 433.28C943.189333 623.616 749.226667 817.621333 509.909333 817.621333zM509.909333-27.648c-227.541333 0-411.989333 184.405333-411.989333 411.946667 0 227.541333 184.448 411.989333 411.989333 411.989333s411.946667-184.448 411.946667-411.989333C921.856 156.757333 737.450667-27.648 509.909333-27.648zM746.208333 251.708333c0-18.125-1.083333-44.958333-3.291667-80.458333-1.5-18.458333-8.583333-33.25-21.333333-44.125-12.75-10.875-28.416667-16.625-46.916667-17.416667-36.625-1.875-91.541667-2.791667-164.75-2.791667-73.625 0-128.516667 0.916667-164.75 2.791667-18.516667 0.791667-34.125 6.541667-46.85 17.416667-12.791667 10.875-19.891667 25.666667-21.375 44.125-2.208333 35.5-3.308333 62.333333-3.308333 80.458333 0 18.083333 1.1 44.958333 3.308333 80.458333 1.483333 18.416667 8.583333 33.166667 21.375 44.1 12.725 10.875 28.333333 16.683333 46.85 17.458333 36.225 1.808333 91.125 2.75 164.75 2.75 73.583333 0 128.5-0.933333 164.708333-2.75 18.541667-0.75 34.166667-6.583333 46.916667-17.458333 12.791667-10.933333 19.875-25.683333 21.291667-44.1C745.125 296.666667 746.208333 269.791667 746.208333 251.708333zM375.666667 323.833333l33.808333 0 0 27.708333L310.208333 351.541667l0-27.708333 33.25 0 0-162.541667 32.208333 0L375.666667 323.833333zM407.266667 661.625l40.5 0L417.25 570.083333c-1.483333-4.416667-3.308333-9.5-5.516667-15.225-2.25-5.725-4.141667-10.916667-5.85-15.516667-1.666667-4.625-3.058333-9.725-4.125-15.225l0-97.641667-39.975 0c0 0.375 0 8.975 0 25.791667 0 16.808333 0 31.958333 0 45.5 0 13.5 0 20.791667 0 21.891667-0.708333 4.433333-6.066667 20.166667-16.058333 47.125l-31.6 94.875 40.5 0L380.083333 567.916667l2.766667 0L407.266667 661.625zM462.208333 161.291667l28.291667 0L490.5 301.666667l-28.291667 0 0-106.458333c-6.291667-7.166667-12.016667-10.625-17.166667-10.625-4.833333 0-7.225 3.125-7.225 9.416667L437.816667 301.666667l-28.833333 0 0-118.208333c0-16.208333 6.625-24.375 19.958333-24.375 11.1 0 22.183333 5.875 33.266667 17.75L462.208333 161.291667zM548.708333 559.566667l0-89.875c0-15.475-4.583333-27.333333-13.875-35.475-9.25-8.125-21.808333-12.208333-37.708333-12.208333-15.166667 0-27.433333 4.333333-36.875 13.041667-9.433333 8.683333-14.141667 20.433333-14.141667 35.183333L446.108333 560.108333c0 14.433333 5.1 25.458333 15.25 33 10.166667 7.625 22.683333 11.391667 37.433333 11.391667 14.058333 0 25.916667-4.083333 35.541667-12.208333C543.916667 584.125 548.708333 573.233333 548.708333 559.566667zM512.683333 466.941667 512.683333 561.791667c0 3.666667-1.666667 6.75-5.016667 9.166667-3.308333 2.375-6.791667 3.583333-10.541667 3.583333-3.691667 0-7.041667-1.208333-9.975-3.583333-2.975-2.416667-4.416667-5.475-4.416667-9.166667l0-94.85c0-9.625 4.75-14.416667 14.391667-14.416667C507.5 452.525 512.683333 457.316667 512.683333 466.941667zM600.916667 190.708333 600.916667 268.333333c0 23.291667-9.291667 34.958333-27.75 34.958333-9.291667 0-17.791667-4.25-25.583333-12.75l0 61.083333-28.791667 0 0-190.333333 28.791667 0L547.583333 172.416667c8.208333-8.5 17.25-12.75 27.25-12.75C592.208333 159.583333 600.916667 169.958333 600.916667 190.708333zM571.5 267.25l0-73.75c0-7.833333-3.333333-11.625-10-11.625-5.208333 0-9.833333 1.958333-13.916667 6L547.583333 275.583333c3.708333 3.666667 7.791667 5.583333 12.25 5.583333C567.625 281.166667 571.5 276.5 571.5 267.25zM680.208333 600.066667l0-173.625-35.5 0 0 19.375c-13.708333-14.391667-27.375-21.625-41.083333-21.625-16.583333 0-24.916667 10.333333-24.916667 31.058333L578.708333 600.066667 614.166667 600.066667l0-133.166667c0-7.725 3.125-11.641667 9.5-11.641667 6.208333 0 13.25 4.458333 21.041667 13.333333L644.708333 600.066667 680.208333 600.066667zM706.833333 201.25l0 10.5-29.458333 0c0-0.666667 0.125-3.125 0.333333-7.208333 0.208333-4 0.208333-6.875 0-8.583333-0.25-1.708333-0.666667-3.75-1.375-6.375-0.791667-2.625-2.041667-4.416667-3.875-5.5-1.875-1.208333-4.458333-1.708333-7.791667-1.708333-3.666667 0-6.541667 1.083333-8.583333 3.291667-2 2.208333-3.166667 4.416667-3.333333 6.708333-0.166667 2.125-0.25 5.375-0.25 9.375l0 26.666667 54.333333 0 0 35.416667c0 13-3.541667 23.208333-10.541667 30.625-7 7.375-17 11.125-29.916667 11.125-12.583333 0-23.041667-3.833333-31.375-11.416667-8.291667-7.625-12.458333-17.75-12.458333-30.333333l0-62.666667c0-13.291667 3.666667-23.916667 10.833333-31.791667 7.166667-8 17.458333-12 30.75-12C692.583333 157.375 706.833333 172 706.833333 201.25zM677.375 265.541667l0-15.541667L652.5 250l0 15.541667c0 10.041667 4.208333 15.041667 12.75 15.041667C673.333333 280.583333 677.375 275.583333 677.375 265.541667z"  horiz-adv-x="1024" />

    
    <glyph glyph-name="sina" unicode="&#58926;" d="M511.104 815.787c-239.317 0-433.323-194.005-433.323-433.323 0-239.275 194.005-433.28 433.323-433.28s433.323 194.005 433.323 433.28c-0 239.317-194.005 433.323-433.323 433.323zM511.104-29.483c-227.541 0-411.989 184.405-411.989 411.947s184.448 411.989 411.989 411.989c227.541 0 411.989-184.448 411.989-411.989s-184.405-411.947-411.989-411.947zM654.375 391.025c-22.417 4.4-11.5 16.542-11.5 16.542s22 36.375-4.333 62.808c-32.708 32.75-112.083-4.167-112.083-4.167-30.35-9.458-22.292 4.292-18.017 27.625 0 27.558-9.392 74.167-90.142 46.667-80.75-27.683-150.042-124.708-150.042-124.708-48.167-64.458-41.792-114.292-41.792-114.292 12.058-110 128.6-140.125 219.292-147.292 95.375-7.5 224.125 33 263.125 116.125 39.033 83.25-31.925 116.208-54.508 120.692v0zM452.75 185.25c-94.667-4.417-171.208 43.167-171.208 106.542 0 63.417 76.542 114.225 171.208 118.642 94.792 4.35 171.5-34.808 171.5-98.1s-76.708-122.833-171.5-127.083v0zM433.875 368.625c-95.208-11.208-84.192-100.625-84.192-100.625s-0.983-28.292 25.5-42.75c55.725-30.25 113.1-11.875 142.083 25.625 29.025 37.5 12.025 128.858-83.392 117.75v0zM409.892 243.083c-17.792-2.125-32.142 8.167-32.142 23.083s12.725 30.458 30.517 32.333c20.433 1.958 33.767-9.875 33.767-24.833 0.008-14.833-14.433-28.542-32.142-30.583v0zM466.042 291.042c-6.042-4.5-13.433-3.917-16.642 1.542-3.292 5.208-2.067 13.708 4.042 18.208 7.017 5.208 14.417 3.708 17.542-1.625 3.183-5.375 0.933-13.458-4.942-18.125v0zM700.792 429.775c7.667 0 14.208 5.683 15.25 13.1 0.167 0.542 0.208 1 0.208 1.642 11.625 104.883-85.708 86.817-85.708 86.817-8.625 0-15.542-7-15.542-15.767 0-8.6 6.917-15.583 15.542-15.583 69.917 15.433 54.5-54.6 54.5-54.6 0-8.675 7.042-15.608 15.75-15.608v0zM689.458 612.75c-33.625 7.917-68.25 1.125-77.958-0.75-0.75-0.083-1.417-0.767-2.083-0.917-0.417-0.1-0.583-0.417-0.583-0.417-9.625-2.725-16.542-11.583-16.542-22.042 0-12.517 10.083-22.792 22.708-22.792 0 0 12.208 1.667 20.542 4.917 8.25 3.308 77.917 2.458 112.583-55.808 18.833-42.542 8.292-71 6.958-75.6 0 0-4.458-11.083-4.458-21.933 0-12.558 10.083-20.5 22.583-20.5 10.458 0 19.292 1.458 21.833 19.183h0.083c37.208 124.225-45.458 182.575-105.667 196.658v0z"  horiz-adv-x="1024" />

    
    <glyph glyph-name="youku1" unicode="&#58928;" d="M511.104 815.786667C271.786667 815.786667 77.781333 621.781333 77.781333 382.464c0-239.274667 194.005333-433.28 433.322667-433.28s433.322667 194.005333 433.322667 433.28C944.426667 621.781333 750.421333 815.786667 511.104 815.786667zM511.104-29.482667c-227.541333 0-411.989333 184.405333-411.989333 411.946667S283.562667 794.453333 511.104 794.453333c227.541333 0 411.989333-184.448 411.989333-411.989333S738.688-29.482667 511.104-29.482667zM259.291667 385.358333c9.933333 22.225 19.125 42.833333 28.433333 63.333333 5.016667 10.975 11.641667 14.35 21.875 11.766667 15.791667-3.983333 20.958333-15.1 13.85-31-15.75-35.308333-31.791667-70.458333-47.75-105.708333-7.225-15.958333-14.183333-32.291667-22.016667-48-6.516667-13.083333-16.808333-15.833333-28.808333-8.833333-8.916667 5.166667-11.558333 15.25-6.541667 27.125 5.208333 12.375 10.475 24.708333 16.583333 36.625 3.6 6.958333 2.75 12.166667-1.125 18.625-15.208333 25.25-29.891667 50.85-44.875 76.25-2.333333 3.916667-4.208333 7.916667-5.083333 12.35-1.65 8.333333 1.808333 15.85 9.041667 20.225 7.933333 4.791667 15.766667 4.275 22.766667-1.391667 3.583333-2.875 5.916667-6.641667 8.183333-10.5C235.391667 426.4 246.891667 406.583333 259.291667 385.358333zM625.541667 372.125c0-14.291667 0.125-26.333333-0.083333-38.416667C625.333333 321.583333 619.833333 315.916667 608.5 315.5c-13.458333-0.666667-20.5 4.458333-20.708333 16.958333-0.458333 34.6-0.541667 69.141667 0.083333 103.708333 0.208333 13.308333 7.458333 19.225 19.375 18.766667 11.083333-0.458333 17.75-6.791667 18.083333-17.808333 0.333333-12.333333 0.083333-24.625 0.083333-37.041667 4 0.183333 5.166667 2.833333 6.916667 4.566667 14.125 14.308333 27.875 28.875 42.125 42.975 12.375 12.25 30.541667 7.916667 34.083333-8.041667 2.125-9.208333-2.458333-16.416667-8.583333-22.625-7.916667-7.766667-16.125-15.25-24.166667-22.808333-8.333333-7.833333-8.25-7.833333 0.291667-15.808333 8.958333-8.25 17.833333-16.5 26.75-24.791667 2.125-2 4.208333-4 5.708333-6.5 5.833333-8.833333 4.875-20.541667-1.666667-26.041667-7.125-6.083333-19.125-5.5-26.875 1.541667-15.833333 14.333333-31.5 29-47.208333 43.391667C631 367.625 628.958333 369.166667 625.541667 372.125zM495.266667 400.791667c0-10.833333-0.15-21.6 0-32.433333 0.208333-15.516667 10.125-25.683333 24.975-25.808333 14.541667 0 25.416667 10.375 25.583333 25.558333 0.333333 22.391667-0.083333 44.791667 0.166667 67.208333 0.166667 12.375 6.5 19.5 16.833333 19.916667 9.666667 0.375 16.041667-4.5 18.083333-14.058333 0.75-3.308333 1.125-6.775 1.125-10.166667 0.125-20.291667 0.25-40.666667 0-60.916667-0.333333-31.208333-14.958333-48.666667-45.625-53.916667-13.291667-2.25-26.791667-1.833333-39.958333 1.833333-23.666667 6.541667-36.458333 22.291667-37.183333 47.808333-0.641667 22.958333-0.375 45.891667-0.058333 68.85 0.125 11.625 4.875 18.416667 12.833333 20.333333 12.975 3.125 22.375-4.041667 23.016667-18.625 0.566667-11.833333 0.15-23.75 0.15-35.583333L495.266667 400.791667zM713.75 399.791667c0 12.641667-0.416667 25.35 0.166667 37.975 0.458333 12.041667 7.291667 18.083333 18.75 17.558333 10.125-0.458333 16.125-7.041667 16.208333-19.416667 0.291667-22.141667 0-44.308333 0.208333-66.516667 0.083333-12.641667 5.791667-21.475 15.666667-25.1 17.5-6.583333 34.625 4.5 35.083333 23.25 0.458333 20.266667 0.083333 40.641667 0.208333 60.916667 0 4.183333 0.25 8.458333 0.958333 12.558333 1.583333 8.666667 7.375 13.558333 15.708333 14.041667 9.125 0.475 15.208333-3.708333 17.833333-12.35 0.5-1.541667 1.083333-3.058333 1.083333-4.583333 0-25.625 1.458333-51.308333-0.541667-76.708333-2.125-27.291667-16.666667-40.416667-45.625-45.166667-14.166667-2.333333-28.458333-1.583333-42.25 2.833333-20.083333 6.5-32.416667 22.291667-33.25 43.5C713.291667 375 713.75 387.358333 713.75 399.791667zM387.458333 460.708333c-37.308333 0.375-68.041667-32.433333-68.083333-72.683333-0.166667-42.516667 27.958333-72.433333 67.875-72.433333 40.916667 0 67.916667 28.458333 68.058333 71.933333C455.375 427.608333 425 460.4 387.458333 460.708333zM407.125 356.583333c-11.641667-12.625-28.725-12.375-40.291667 0.166667-14.6 15.916667-14.6 44.25 0 60.208333 11.5 12.625 28.583333 12.85 40.291667 0.333333 7.958333-8.5 11.183333-18.891667 11.125-30.391667C418.308333 375.416667 414.975 365.066667 407.125 356.583333z"  horiz-adv-x="1024" />

    
    <glyph glyph-name="fenxiang" unicode="&#58956;" d="M979.584 442.112 605.824 812.8l0-230.016c-5.12 0.256-10.112 0.768-15.232 0.768-309.376 0-560.256-248.704-560.256-555.52 0-2.048 0.256-4.096 0.384-6.272C106.24 184.192 271.616 297.216 463.872 297.216c49.408 0 97.024-7.808 141.952-21.632l0-204.16L979.584 442.112z"  horiz-adv-x="1024" />

    
    <glyph glyph-name="time2" unicode="&#58944;" d="M512 810.667c-234.667 0-426.667-192-426.667-426.667s192-426.667 426.667-426.667 426.667 192 426.667 426.667-192 426.667-426.667 426.667zM691.2 204.8l-221.867 136.533v256h64v-221.867l192-115.2c0 0-34.133-55.467-34.133-55.467z"  horiz-adv-x="1024" />

    
    <glyph glyph-name="in2" unicode="&#58927;" d="M341.344 85.344l-128 0 0 426.656 128 0 0-426.656zM810.656 85.344l-128 0 0 227.936c0 59.392-21.152 88.96-63.104 88.96-33.248 0-54.304-16.544-64.896-49.696 0-53.856 0-267.168 0-267.168l-128 0c0 0 1.696 384 0 426.656l101.024 0 7.808-85.344 2.656 0c26.24 42.656 68.192 71.584 125.696 71.584 43.744 0 79.104-12.16 106.112-42.72 27.168-30.592 40.704-71.648 40.704-129.28l0-240.928zM343.456 618.656c0-35.36-29.6-64-66.144-64s-66.144 28.64-66.144 64c0 35.36 29.6 64 66.144 64 36.512 0 66.144-28.64 66.144-64z"  horiz-adv-x="1024" />

    
    <glyph glyph-name="sina2" unicode="&#58929;" d="M727.552 338.176c-34.816 6.72-17.856 25.472-17.856 25.472s34.048 56.192-6.72 97.088C652.288 511.36 529.28 454.336 529.28 454.336 482.24 439.744 494.72 460.992 501.376 497.088c0 42.624-14.592 114.688-139.776 72.064C236.544 526.4 129.216 376.448 129.216 376.448c-74.688-99.648-64.768-176.64-64.768-176.64 18.688-169.984 199.296-216.704 339.776-227.776 147.84-11.584 347.328 51.008 407.808 179.52C872.512 280.256 762.56 331.2 727.552 338.176zM415.168 19.968c-146.752-6.784-265.344 66.752-265.344 164.672 0 97.984 118.656 176.576 265.344 183.36 146.752 6.784 265.664-53.76 265.664-151.488C680.832 118.656 561.92 26.752 415.168 19.968zM385.856 303.488c-147.584-17.28-130.56-155.52-130.56-155.52s-1.536-43.776 39.552-66.048c86.336-46.72 175.232-18.432 220.16 39.552C560.064 179.52 533.632 320.64 385.856 303.488zM348.608 109.504c-27.52-3.264-49.728 12.672-49.728 35.712s19.712 46.976 47.296 49.856c31.616 3.008 52.224-15.168 52.224-38.272C398.4 133.824 376.064 112.64 348.608 109.504zM435.648 183.616c-9.344-6.976-20.8-6.016-25.728 2.304-5.184 8.192-3.2 21.248 6.208 28.096 10.944 8.128 22.336 5.824 27.264-2.368C448.32 203.392 444.736 190.784 435.648 183.616zM799.424 398.016c11.904 0 22.016 8.768 23.68 20.288 0.256 0.832 0.384 1.6 0.384 2.56 17.984 162.048-132.8 134.144-132.8 134.144-13.376 0-24.128-10.816-24.128-24.32 0-13.312 10.752-24.128 24.128-24.128 108.288 23.936 84.416-84.416 84.416-84.416C775.104 408.704 785.984 398.016 799.424 398.016zM781.888 680.832c-52.16 12.224-105.728 1.664-120.832-1.216-1.152-0.064-2.24-1.216-3.328-1.408-0.512-0.128-0.832-0.64-0.832-0.64-14.848-4.16-25.664-17.92-25.664-34.112 0-19.328 15.68-35.2 35.2-35.2 0 0 19.008 2.56 31.872 7.552 12.736 5.184 120.768 3.84 174.464-86.272 29.248-65.728 12.8-109.76 10.816-116.8 0 0-6.976-17.088-6.976-33.92 0-19.392 15.68-31.616 35.072-31.616 16.256 0 29.824 2.176 33.792 29.632l0.256 0C1003.264 568.896 875.2 659.072 781.888 680.832z"  horiz-adv-x="1024" />

    
    <glyph glyph-name="more2" unicode="&#58930;" d="M121.744 504.243c-65.493 0-118.589-53.073-118.589-118.589 0-65.493 53.096-118.566 118.589-118.566s118.589 53.073 118.589 118.566c0 65.516-53.096 118.589-118.589 118.589zM499.974 504.243c-65.493 0-118.589-53.073-118.589-118.589 0-65.493 53.096-118.566 118.589-118.566s118.589 53.073 118.589 118.566c0 65.516-53.096 118.589-118.589 118.589zM901.845 504.243c-65.493 0-118.591-53.073-118.591-118.589 0-65.493 53.097-118.566 118.591-118.566s118.589 53.073 118.589 118.566c-0.001 65.516-53.096 118.589-118.589 118.589z"  horiz-adv-x="1024" />

    
    <glyph glyph-name="close2" unicode="&#58931;" d="M511.993-29.555c-244.093 0-442.674 198.581-442.674 442.681s198.581 442.681 442.674 442.681c244.106 0 442.687-198.581 442.687-442.681s-198.581-442.681-442.687-442.681zM511.993 819.792c-224.232 0-406.659-182.434-406.659-406.666s182.427-406.666 406.659-406.666 406.672 182.434 406.672 406.666-182.439 406.666-406.672 406.666zM641.116 266.003c-4.613 0-9.214 1.759-12.731 5.269l-258.23 258.224c-7.035 7.035-7.035 18.44 0 25.476 7.035 7.022 18.427 7.022 25.462 0l258.23-258.224c7.035-7.035 7.035-18.44 0-25.476-3.518-3.51-8.118-5.269-12.731-5.269zM382.884 266.003c-4.613 0-9.214 1.751-12.731 5.269-7.035 7.035-7.035 18.44 0 25.476l258.231 258.224c7.035 7.022 18.427 7.035 25.462 0 7.035-7.035 7.035-18.44 0-25.476l-258.231-258.224c-3.518-3.51-8.118-5.269-12.731-5.269z"  horiz-adv-x="1024" />

    
    <glyph glyph-name="clear" unicode="&#58932;" d="M608 128c-17.696 0-32 14.304-32 32v352c0 17.696 14.304 32 32 32s32-14.304 32-32v-352c0-17.696-14.304-32-32-32zM416 128c-17.696 0-32 14.304-32 32v352c0 17.696 14.304 32 32 32s32-14.304 32-32v-352c0-17.696-14.304-32-32-32zM928 672h-160v64c0 52.928-42.72 96-95.264 96h-320.736c-52.928 0-96-43.072-96-96v-64h-160c-17.696 0-32-14.304-32-32s14.304-32 32-32h832c17.696 0 32 14.304 32 32s-14.304 32-32 32zM320 736c0 17.632 14.368 32 32 32h320.736c17.536 0 31.264-14.048 31.264-32v-64h-384v64zM736.128-64h-448.064c-52.928 0-96 43.072-96 96l-0 480.48c0 17.664 14.336 32 32 32s32-14.336 32-32l0-480.48c0-17.664 14.368-32 32-32h448.064c17.664 0 32 14.336 32 32v479.168c0 17.664 14.304 32 32 32s32-14.336 32-32v-479.168c0-52.928-43.072-96-96-96z"  horiz-adv-x="1024" />

    
    <glyph glyph-name="filter" unicode="&#58933;" d="M608.242-64.011c-17.717 0-31.995 14.277-31.995 31.995v479.919c0 7.913 2.924 15.653 8.257 21.502l208.825 234.455h-562.83l209.169-234.627c5.16-5.848 8.085-13.417 8.085-21.33v-288.812l50.916-41.111c13.761-11.181 15.825-31.307 4.816-45.068s-31.307-15.825-45.068-4.816l-62.785 51.088c-7.569 6.020-11.869 15.309-11.869 24.942l0 291.736-248.56 278.835c-8.429 9.461-10.493 22.878-5.332 34.403 5.16 11.525 16.685 18.922 29.242 18.922h706.29c12.729 0 24.082-7.397 29.242-19.094 5.16-11.525 2.924-25.114-5.504-34.403l-248.904-278.835v-467.706c0-17.717-14.277-31.995-31.995-31.995z"  horiz-adv-x="1024" />

    
    <glyph glyph-name="collect1" unicode="&#58934;" d="M512.272-21.013l-59.765 59.765c-221.984 196.371-367.129 328.707-367.129 490.927 0 132.337 102.454 234.791 234.791 234.791 72.572 0 145.143-34.151 192.102-89.648 46.958 55.497 119.53 89.648 192.102 89.648 132.337 0 234.791-102.454 234.791-234.791 0-162.22-145.143-294.556-367.129-490.927l-59.765-59.765z"  horiz-adv-x="1024" />

    
    <glyph glyph-name="collect2" unicode="&#58935;" d="M512-25.979c-4.912 0-9.517 1.126-13.61 3.275-59.35 29.573-167.102 110.105-263.291 217.243-50.448 56.178-90.561 111.845-119.315 165.26-33.461 62.318-50.448 120.44-50.448 172.73 0 107.547 50.141 169.66 92.3 202.713 46.764 36.838 110.719 58.736 171.093 58.736 37.555 0 76.337-11.563 115.324-34.178 28.652-16.68 51.983-36.224 67.946-51.369 15.963 15.145 39.294 34.689 67.946 51.369 38.987 22.717 77.77 34.178 115.324 34.178 60.374 0 124.329-22.001 171.093-58.736 42.057-33.154 92.3-95.165 92.3-202.713 0-52.187-16.987-110.31-50.448-172.73-28.652-53.415-68.765-108.98-119.213-165.26-96.189-107.24-203.838-187.773-263.086-217.345-4.502-2.149-9.107-3.172-13.917-3.172zM328.832 733.503c-81.453 0-202.508-53.518-202.508-201.075 0-185.521 266.975-427.323 385.778-494.041 118.701 66.718 385.676 308.52 385.676 494.041-0.102 147.558-121.157 201.075-202.508 201.075-42.978 0-83.193-23.024-109.491-42.466-28.754-21.182-47.583-42.773-49.834-45.331l-0.614-0.614c-5.935-6.651-14.633-10.642-23.331-10.642s-17.396 3.991-23.331 10.642l-0.307 0.409-0.102 0.102c-3.786 4.4-77.36 87.9-159.428 87.9z"  horiz-adv-x="1024" />

    
    <glyph glyph-name="collect3" unicode="&#58936;" d="M758.941 5.819l-246.855 130.816-246.873-130.816 47.153 275.91-199.737 194.681 276.019 40.102 123.436 250.119 123.419-250.119 274.996-40.102-198.712-194.681 47.153-275.91zM187.053 452.233l162.508-158.4-38.362-223.694 200.886 105.616 200.869-105.616-38.362 223.694 162.508 158.4-224.589 32.63-100.426 203.523-100.444-203.523-224.589-32.63z"  horiz-adv-x="1024" />

    
    <glyph glyph-name="collect4" unicode="&#58937;" d="M829.611 273.408c-19.947-19.733-29.013-47.445-24.405-74.688l55.168-326.443-283.029 150.912c-13.589 7.232-28.587 10.859-43.605 10.859-14.976 0-29.973-3.627-43.563-10.859l-283.072-150.912 55.211 326.443c4.608 27.243-4.459 54.955-24.405 74.688l-237.909 235.285 324.629 47.915c29.653 4.373 55.211 22.741 67.968 48.96l141.163 290.133 141.141-290.155c12.757-26.219 38.272-44.587 67.925-48.96l324.693-47.915-237.909-235.264z"  horiz-adv-x="1068" />

    
    <glyph glyph-name="weixin2" unicode="&#58938;" d="M684.2624 559.360922c10.256998 0 20.405555-0.753152 30.472294-1.873715C687.354982 684.973773 551.049933 779.695104 395.467162 779.695104c-173.940736 0-316.424704-118.557184-316.424704-269.103923 0-86.8992 47.403622-158.259405 126.61801-213.608038l-31.648051-95.184896 110.615859 55.468339c39.581082-7.834419 71.337677-15.888896 110.837965-15.888896 9.929523 0 19.775181 0.490189 29.539021 1.257677-6.182093 21.154816-9.763738 43.312435-9.763738 66.302054C415.242342 447.174861 533.955994 559.360922 684.2624 559.360922zM514.125517 645.150822c23.825613 0 39.60873-15.673958 39.60873-39.484314 0-23.715123-15.783117-39.607091-39.60873-39.607091-23.716147 0-47.513088 15.891968-47.513088 39.607091C466.612429 629.477888 490.40937 645.150822 514.125517 645.150822zM292.671693 566.060544c-23.713075 0-47.648154 15.891968-47.648154 39.607091 0 23.810253 23.934054 39.484314 47.648154 39.484314 23.715123 0 39.499264-15.673958 39.499264-39.484314C332.170957 581.95241 316.386816 566.060544 292.671693 566.060544zM973.059686 312.739021c0 126.504141-126.593434 229.620736-268.773478 229.620736-150.553088 0-269.128499-103.116493-269.128499-229.620736 0-126.72215 118.576538-229.620736 269.128499-229.620736 31.510938 0 63.294157 7.945933 94.942208 15.877632l86.79127-47.525376-23.796941 79.073894C925.73696 178.193715 973.059686 241.378714 973.059686 312.739021zM617.027379 352.331776c-15.755469 0-31.648051 15.673958-31.648051 31.661056 0 15.766118 15.892582 31.643648 31.648051 31.643648 23.934054 0 39.60873-15.877632 39.60873-31.643648C656.636109 368.005734 640.961434 352.331776 617.027379 352.331776zM791.077581 352.331776c-15.647027 0-31.430144 15.673958-31.430144 31.661056 0 15.766118 15.783117 31.643648 31.430144 31.643648 23.715123 0 39.605658-15.877632 39.605658-31.643648C830.684262 368.005734 814.793626 352.331776 791.077581 352.331776z"  horiz-adv-x="1024" />

    
    <glyph glyph-name="message" unicode="&#58939;" d="M566.008 427.515c0-29.823-24.18-54.001-54.008-54.001-29.829 0-54.009 24.179-54.009 54.001 0 29.855 24.18 54.027 54.009 54.027 29.828 0 54.008-24.173 54.008-54.027zM295.965 481.543c-29.829 0-54.009-24.173-54.009-54.027 0-29.823 24.179-54.001 54.009-54.001s54.008 24.179 54.008 54.001c-0 29.855-24.179 54.027-54.008 54.027zM944.069 427.515c0-208.79-193.456-378.042-432.070-378.042-27.629 0-54.559 2.507-80.763 6.84l-189.28-114.871v191.22c-98.692 69.273-162.026 175.535-162.026 294.853 0 208.821 193.457 378.069 432.070 378.069 238.615-0.001 432.070-169.248 432.070-378.069zM890.061 427.515c0 178.966-169.276 324.065-378.061 324.065-208.783 0-378.060-145.099-378.060-324.065 0-109.805 63.886-206.664 161.351-265.292l-1.7-125.258 127.146 76.406c29.255-6.224 59.734-9.894 91.264-9.894 208.785-0.001 378.061 145.072 378.061 324.038zM728.034 481.543c-29.828 0-54.007-24.173-54.007-54.027 0-29.823 24.179-54.001 54.007-54.001 29.829 0 54.007 24.179 54.007 54.001 0 29.855-24.177 54.027-54.007 54.027z"  horiz-adv-x="1024" />

    
    <glyph glyph-name="reserve" unicode="&#58940;" d="M960.24-46.327c0-8.336-6.758-15.093-15.093-15.093l-866.074-0c-8.336 0-15.093 6.758-15.093 15.093l-0 818.723c0 8.331 6.757 15.094 15.093 15.094h866.074c8.336 0 15.093-6.758 15.093-15.094v-818.723zM891.275 711.048c0 7.106-5.706 12.865-12.739 12.865l-731.010-0c-7.035 0-12.74-5.759-12.74-12.865v-697.961c0-7.106 5.706-12.869 12.74-12.869h731.010c7.033 0 12.739 5.763 12.739 12.869v697.961zM321.281 661.526c0-6.7-6.768-12.125-15.124-12.125h-52.932c-8.35 0-15.123 5.426-15.123 12.125l-0 210.169c0 6.695 6.773 12.125 15.123 12.125h52.932c8.356 0 15.124-5.43 15.124-12.125l0-210.169zM781.304 661.526c0-6.7-6.773-12.125-15.123-12.125h-52.937c-8.35 0-15.123 5.426-15.123 12.125l-0 210.169c0 6.695 6.773 12.125 15.123 12.125h52.937c8.35 0 15.123-5.43 15.123-12.125l0-210.169zM540.169 226.425c7.107-7.028 7.169-18.482 0.146-25.584l-42.395-42.884c-7.023-7.101-18.472-7.174-25.579-0.146l-193.205 185.955c-7.106 7.023-7.169 18.482-0.152 25.583l42.395 42.884c7.022 7.106 18.477 7.168 25.583 0.143l193.207-185.951zM691.596 501.333c6.857 7.262 18.311 7.59 25.567 0.729l43.836-41.412c7.263-6.854 7.591-18.311 0.723-25.57l-215.322-227.933c-6.856-7.262-18.31-7.585-25.572-0.729l-43.83 41.41c-7.263 6.856-7.586 18.306-0.73 25.572l215.327 227.933zM691.596 501.333z"  horiz-adv-x="1024" />

    
    <glyph glyph-name="round1" unicode="&#58941;" d="M69.886 384c0-0 0-0 0-0 0-244.172 197.941-442.113 442.113-442.113 244.172 0 442.113 197.941 442.113 442.113 0 0 0 0 0 0 0 0 0 0 0 0 0 244.172-197.941 442.113-442.113 442.113-244.172 0-442.113-197.941-442.113-442.113 0-0 0-0 0-0z"  horiz-adv-x="1024" />

    
    <glyph glyph-name="round2" unicode="&#58942;" d="M511.999 831.98c246.984 0 447.976-200.992 447.976-447.98s-200.992-447.98-447.976-447.98c-246.992 0-447.976 200.992-447.976 447.98s200.983 447.98 447.976 447.98M511.999 895.976c-282.8 0-511.972-229.177-511.972-511.976 0-282.736 229.172-511.976 511.972-511.976s511.972 229.241 511.972 511.976c0 282.8-229.172 511.976-511.972 511.976v0z"  horiz-adv-x="1024" />

    
    <glyph glyph-name="logout" unicode="&#58943;" d="M512.282-61.937c-247.53 0-448.191 200.661-448.191 448.186 0 191.063 119.758 353.748 288.116 418.226v-69.339c-132.149-60.736-224.089-193.907-224.089-348.887 0-212.151 172.012-384.162 384.163-384.162 212.153 0 384.158 172.011 384.158 384.162 0 154.98-91.944 288.151-224.094 348.918v69.309c168.359-64.479 288.116-227.169 288.116-418.226 0.005-247.524-200.655-448.186-448.18-448.186v0 0zM480.268 834.439h64.022v-449.34h-64.022v449.34zM480.268 834.439z"  horiz-adv-x="1024" />

    
    <glyph glyph-name="close3" unicode="&#58945;" d="M512.001 822.767c-238.496 0-431.835-193.339-431.835-431.835s193.339-431.835 431.835-431.835 431.835 193.339 431.835 431.835-193.339 431.835-431.835 431.835zM720.691 234.444l-52.201-52.201-156.489 156.489-156.49-156.489-52.2 52.201 156.489 156.489-156.489 156.488 52.16 52.2 156.519-156.5 156.501 156.5 52.201-52.2-156.5-156.497 156.499-156.48z"  horiz-adv-x="1024" />

    
    <glyph glyph-name="google" unicode="&#58950;" d="M332.8 428.8l0-102.4 185.6 0C492.8 249.6 422.4 192 332.8 192c-108.8 0-192 83.2-192 192s83.2 192 192 192C384 576 435.2 556.8 467.2 518.4l76.8 76.8c-57.6 51.2-128 89.6-211.2 89.6C166.4 684.8 32 550.4 32 384s134.4-300.8 300.8-300.8S633.6 217.6 633.6 384c0 12.8 0 32-6.4 44.8L332.8 428.8zM992 422.4 883.2 422.4 883.2 524.8 812.8 524.8 812.8 422.4 710.4 422.4 710.4 345.6 812.8 345.6 812.8 243.2 883.2 243.2 883.2 345.6 992 345.6Z"  horiz-adv-x="1024" />

    
    <glyph glyph-name="diqiu" unicode="&#58946;" d="M494.913264 896l34.034995 0c59.032926-2.745437 117.855127-14.178739 172.733772-36.419191 114.435372-45.281656 211.019379-133.581185 266.608467-243.356538 35.335466-68.792474 54.05381-145.755033 55.703481-223.018627l0-18.345061c-1.631609-76.264158-19.832173-152.21524-54.318721-220.339417-33.583443-67.100659-82.296896-126.512888-141.239511-172.938476-60.297272-47.557479-131.45588-81.29746-206.509878-97.637629-30.482785-6.875635-61.645908-10.078645-92.784948-11.93904L495.081844-127.993979c-40.82032 2.16143-81.55635 7.658325-120.925682 18.880903-95.319661 26.424835-182.354845 81.484102-247.35428 155.996237-45.721167 52.018815-80.617121 113.520226-101.960489 179.416745C9.223706 274.224647 1.258325 324.479398 0 374.8365l0 18.308937C1.824271 486.628786 29.32079 579.492004 79.720038 658.320978c53.439699 84.217498 131.937535 152.353716 223.078833 192.975353C363.102164 878.720602 428.854186 893.013735 494.913264 896L494.913264 896 494.913264 896zM397.179304 786.778551c-32.445532-40.760113-53.626341-89.08222-70.815428-137.916087 24.136971-6.062841 48.918156-8.699906 73.476576-12.402634 30.458702-3.142803 60.995673-5.918344 91.659078-6.153151C491.469426 704.565945 491.517592 778.81317 491.469426 853.10254 452.49746 844.88429 421.153716 817.303481 397.179304 786.778551L397.179304 786.778551 397.179304 786.778551zM532.49445 630.318721c41.440452 0.746566 82.862841 4.184384 123.803575 10.825212 13.92587 1.770085 27.719285 4.383067 41.3381 7.760677-20.121167 57.160489-46.040263 114.07413-88.55842 158.235936-20.783443 21.782879-46.696519 39.640263-76.523048 45.961994C532.446284 778.837253 532.542615 704.577987 532.49445 630.318721L532.49445 630.318721 532.49445 630.318721zM356.726246 828.736783c-72.404892-25.232738-138.445908-68.533584-190.422578-124.911383 38.020696-20.085042 78.756726-34.932079 120.353716-45.588711 21.722672 65.481091 52.199436 130.239699 101.304233 179.784008C377.274882 835.919473 367.015616 832.198683 356.726246 828.736783L356.726246 828.736783 356.726246 828.736783zM635.833678 838.321731c10.217121-9.42841 18.441392-20.681091 27.364064-31.259454 33.457008-44.703669 56.859454-96.096331 74.241204-148.939981 41.572907 10.843274 82.194544 25.756538 120.377799 45.570649C798.380433 768.120414 720.617121 815.762183 635.833678 838.321731L635.833678 838.321731 635.833678 838.321731zM138.993791 671.801317C80.153528 595.422766 45.239511 500.867733 41.494638 404.440263c68.244591 0.120414 136.489182 0.042145 204.71571 0.042145 1.318532 72.242333 10.590405 144.400376 28.760865 214.360865C227.829163 631.239887 181.819003 648.447037 138.993791 671.801317L138.993791 671.801317 138.993791 671.801317zM749.010724 618.843274c18.188523-69.960489 27.442333-142.118532 28.742803-214.342803 68.280715 0.018062 136.555409 0 204.830103 0-4.009784 96.403387-38.676952 191.018627-97.685795 267.342992C842.199059 648.326623 796.074506 631.35428 749.010724 618.843274L749.010724 618.843274 749.010724 618.843274zM287.13302 404.66905c68.130198-0.361242 136.248354-0.066228 204.360489-0.162559L491.493509 589.359925c-59.297836 1.101787-118.637817 7.26096-176.611101 19.958608C297.259831 542.579116 288.656256 473.624083 287.13302 404.66905L287.13302 404.66905 287.13302 404.66905zM532.49445 589.377987c0-61.639887 0-123.255691 0.024083-184.877516 68.118156 0.126435 136.236312-0.222766 204.354468 0.180621-1.541298 68.961054-10.144873 137.922107-27.755409 204.679586C651.15635 596.58476 591.798307 590.479774 532.49445 589.377987L532.49445 589.377987 532.49445 589.377987zM41.464534 363.529633c3.835183-96.427469 38.682973-190.982502 97.55936-267.361054 42.771025 23.420508 88.853434 40.513264 135.95936 53.000188-18.194544 69.954468-27.382126 142.130574-28.809031 214.360865C177.941675 363.487488 109.697084 363.487488 41.464534 363.529633L41.464534 363.529633 41.464534 363.529633zM287.163123 363.361054c1.517215-68.973095 10.018438-138.024459 27.809595-204.757855 57.907056 12.920414 117.265099 18.880903 176.496707 20.018815 0.024083 61.615804 0.024083 123.261712 0.024083 184.871496C423.381373 363.403198 355.263217 363.686171 287.163123 363.361054L287.163123 363.361054 287.163123 363.361054zM532.49445 363.49953l0-184.853434c59.339981-1.083725 118.679962-7.321167 176.677328-19.940546 17.369708 66.85381 26.545249 135.844967 27.454374 204.902352C668.580245 363.361054 600.540357 363.553716 532.49445 363.49953L532.49445 363.49953 532.49445 363.49953zM777.741486 363.49953c-1.198119-72.21223-10.584384-144.370273-28.706679-214.336783 47.075823-12.420696 93.14619-29.513452 135.905174-52.982126 58.990781 76.300282 93.639887 170.921543 97.649671 267.294826C914.308937 363.529633 846.016181 363.487488 777.741486 363.49953L777.741486 363.49953 777.741486 363.49953zM326.4 119.239887c19.940546-57.298965 46.052305-114.260771 88.600564-158.452681 20.75334-21.740734 46.672437-39.580056 76.474882-45.847601 0.066228 74.223142 0 148.476388 0.024083 222.741675C436.073001 136.585513 380.616369 130.9381 326.4 119.239887L326.4 119.239887 326.4 119.239887zM532.49445 137.705362c0.024083-74.253246-0.042145-148.542615 0.048166-222.78984 38.893697 8.21223 70.213358 35.696707 94.151646 66.173471 32.505738 40.814299 53.812982 89.196613 70.91778 138.150894-24.853434 6.002634-50.278833 8.898589-75.535654 12.565193C592.279962 134.707056 562.453434 137.518721 532.49445 137.705362L532.49445 137.705362 532.49445 137.705362zM166.219379 64.288993c59.41825-64.379304 137.139417-112.081279 221.892756-134.544497-49.098777 49.658702-79.756162 114.41731-101.442709 180.030856C244.976105 99.269238 204.438758 83.994732 166.219379 64.288993L166.219379 64.288993 166.219379 64.288993zM737.402822 109.823518c-21.825024-65.655691-52.422201-130.498589-101.629351-180.217498 84.705174 22.65588 162.480527 70.171214 221.92286 134.5746C819.71778 84.301787 778.957667 99.034431 737.402822 109.823518L737.402822 109.823518 737.402822 109.823518zM737.402822 109.823518"  horiz-adv-x="1024" />

    
    <glyph glyph-name="manage-copy" unicode="&#58947;" d="M644.508 21.242h-638.093v94.34c0 125.47 251.412 188.68 377.352 188.68 52.442 0 126.642-10.96 195.382-32.81-4.39-19.81-6.705-40.4-6.705-61.53 0-72.485 27.249-138.61 72.064-188.68zM383.769 398.596c104.202 0 188.674 84.472 188.674 188.677 0 104.202-84.472 188.675-188.674 188.675-104.205 0-188.677-84.472-188.677-188.675 0-104.204 84.472-188.677 188.677-188.677zM973.388 208.852c0.83 6.59 1.65 13.19 1.65 20.195s-0.41 13.6-1.65 20.195l43.69 34.21c3.71 3.295 4.95 8.65 2.475 13.185l-41.215 71.305c-2.47 4.53-7.83 6.18-12.78 4.53l-51.105-20.61c-10.715 8.245-22.255 15.25-35.035 20.2l-7.83 54.402c-0.41 4.945-4.94 8.655-9.89 8.655h-82.43c-4.945 0-9.48-3.71-10.3-8.655l-7.835-54.402c-12.365-5.36-24.315-11.955-35.035-20.2l-51.105 20.61c-4.535 1.65-9.89 0-12.775-4.53l-41.215-71.305c-2.475-4.535-1.65-9.89 2.475-13.185l43.685-34.21c-0.825-6.595-1.235-13.19-1.235-20.195s0.41-13.605 1.235-20.195l-43.685-34.21c-3.71-3.295-4.95-8.655-2.475-13.19l41.215-71.3c2.47-4.53 7.83-6.18 12.775-4.53l51.105 20.605c10.72-8.245 22.26-15.25 35.035-20.195l7.835-54.405c0.82-4.945 4.94-8.655 10.3-8.655h82.43c4.95 0 9.48 3.71 10.305 8.655l7.83 54.405c12.365 5.36 24.315 11.95 34.62 20.195l51.52-20.605c4.535-1.65 9.89 0 12.775 4.53l41.215 71.3c2.475 4.535 1.235 9.895-2.475 13.19l-44.1 34.21zM820.483 167.222c-34.205 0-61.82 27.615-61.82 61.825 0 34.205 27.615 61.82 61.82 61.82 34.21 0 61.825-27.615 61.825-61.82 0-34.21-27.615-61.825-61.825-61.825v0z"  horiz-adv-x="1037" />

    
    <glyph glyph-name="icowapp" unicode="&#58985;" d="M255.472997 299.640684 116.563274 299.640684l-32.95046-95.061053L32.665469 204.579631l133.084041 369.072777 42.843784 0 130.286322-369.072777-50.960649 0L255.472997 299.640684 255.472997 299.640684zM131.011334 341.473441l110.258173 0-53.745065 158.421102-1.514493 0L131.011334 341.473441 131.011334 341.473441zM443.052187 352.619292l0-148.039661-49.937342 0L393.114844 573.653431l141.189649 0c39.367613 0 69.995167-10.136871 91.88471-30.41266 21.890566-20.274766 32.821523-46.978964 32.821523-80.102363 0-33.458019-10.94426-60.249199-32.821523-80.351026-21.875217-20.10285-52.517097-30.167067-91.88471-30.167067L443.052187 352.620315 443.052187 352.619292zM443.052187 391.655354l91.252307 0c25.00551 0 43.677778 6.720052 56.020898 20.144806 12.345166 13.426801 18.502399 30.369681 18.502399 50.818409 0 20.446681-6.215562 37.520545-18.630313 51.206242-12.415774 13.684674-31.04711 20.534685-55.892985 20.534685l-91.252307 0L443.052187 391.655354 443.052187 391.655354zM773.075599 352.619292l0-148.039661-49.938366 0L723.137233 573.653431l141.189649 0c39.367613 0 69.994144-10.136871 91.886757-30.41266 21.88852-20.274766 32.819476-46.978964 32.819476-80.102363 0-33.458019-10.94426-60.249199-32.819476-80.351026-21.877263-20.10285-52.519144-30.167067-91.886757-30.167067L773.075599 352.620315 773.075599 352.619292zM773.075599 391.655354l91.251284 0c25.00551 0 43.679825 6.720052 56.020898 20.144806 12.345166 13.426801 18.502399 30.369681 18.502399 50.818409 0 20.446681-6.215562 37.520545-18.630313 51.206242-12.415774 13.684674-31.04711 20.534685-55.892985 20.534685l-91.251284 0L773.075599 391.655354 773.075599 391.655354z"  horiz-adv-x="1024" />

    
    <glyph glyph-name="youtube2" unicode="&#59731;" d="M1013.792 588.8c0 0-10.016 70.592-40.8 101.6-39.008 40.8-82.592 40.992-102.592 43.392-143.2 10.4-358.208 10.4-358.208 10.4l-0.384 0c0 0-215.008 0-358.208-10.4-20-2.4-63.584-2.592-102.592-43.392-30.816-31.008-40.608-101.6-40.608-101.6s-10.208-82.816-10.208-165.792l0-77.6c0-82.784 10.208-165.792 10.208-165.792s10.016-70.592 40.608-101.6c39.008-40.8 90.208-39.392 112.992-43.808 82.016-7.808 348.192-10.208 348.192-10.208s215.2 0.384 358.4 10.592c20 2.4 63.616 2.592 102.592 43.392 30.784 31.008 40.8 101.6 40.8 101.6s10.208 82.784 10.208 165.792l0 77.6c-0.192 82.816-10.4 165.792-10.4 165.792zM406.208 251.2l0 287.808 276.608-144.416-276.608-143.392z"  horiz-adv-x="1025" />

    
    <glyph glyph-name="qq" unicode="&#58952;" d="M544.001 414.992l-168.736 128.451c-22.391 17.045-40.711 7.967-40.711-20.173v-278.537c0-28.141 18.32-37.219 40.711-20.173l168.736 128.451c22.391 17.045 22.391 44.937 0 61.983zM923.875 469.584c-174.639 167.496-400.695 269.233-538.167 320.094-66.032 24.43-138.286-16.974-150.537-86.306-0.619-3.504-1.22-6.999-1.814-10.492 126.971-39.377 331.947-116.853 490.755-243.41 44.435-35.41 43.282-94.741-3.216-128.273-89.891-64.825-255.909-168.232-488.309-245.961 0.525-3.213 1.050-6.395 1.577-9.511 11.998-71.019 86.551-113.131 153.405-86.327 253.701 101.718 434.862 237.493 532.814 322.505 50.504 43.833 51.756 121.391 3.493 167.68zM233.357 692.881c-1.58 0.49-3.159 0.979-4.714 1.457-60.794 18.689-127.315-12.985-138.594-66.023-43.101-202.681-22.456-381.916-0.929-487.791 11.047-54.329 79.685-86.543 141.234-66.039 0.747 0.249 1.486 0.501 2.232 0.751-22.471 137.587-42.616 362.957 0.772 617.644z"  horiz-adv-x="1024" />

    
    <glyph glyph-name="youtube1" unicode="&#58951;" d="M612.298215 211.958902l0-103.872953c0-22.015228-6.385632-32.962026-19.280961-32.962026-7.47788 0-14.959408 3.527302-22.197674 10.825167L570.81958 234.156576c7.238266 7.235834 14.719795 10.825167 22.197674 10.825167C605.912582 244.981743 612.298215 233.972913 612.298215 211.958902L612.298215 211.958902 612.298215 211.958902zM779.357303 211.471161l0-22.623383-44.51698 0 0 22.623383c0 22.319305 7.357465 33.44855 22.197674 33.44855C771.876991 244.919712 779.357303 233.790467 779.357303 211.471161L779.357303 211.471161zM301.955267 318.8106l52.885199 0L354.840466 365.092447 200.636568 365.092447l0-46.281847 51.899987 0 0-280.17722 49.443039 0 0 280.17722L301.955267 318.8106 301.955267 318.8106zM444.287971 38.634596l43.96964 0 0 243.262184-43.96964 0 0-186.095571c-9.912934-13.805129-19.278528-20.677286-28.194087-20.677286-5.899108 0-9.400867 3.406887-10.399458 10.400675-0.328404 0.912233-0.486524 6.68971-0.486524 17.087952L405.207901 281.958812l-43.96964 0L361.238262 89.415577c0-16.054088 1.301453-28.037183 3.928684-36.002803 3.928684-12.10351 13.501051-18.244664 28.668448-18.244664 15.775553 0 32.597133 10.094164 50.416088 30.163294l0-26.576394L444.287971 38.634596 444.287971 38.634596zM656.265422 111.551219 656.265422 208.492416c0 24.022141-1.458357 40.259891-4.437102 48.712036-5.597463 18.42711-17.332431 27.611474-35.093003 27.611474-16.541829 0-31.745715-8.818254-45.975336-26.576394l0 106.852914-44.006129 0 0-326.337436 44.006129 0 0 23.535616c14.837777-18.062217 30.163294-27.122517 45.975336-27.122517 17.760572 0 29.49554 9.0603 35.093003 27.122517C654.807065 71.170913 656.265422 87.59111 656.265422 111.551219L656.265422 111.551219 656.265422 111.551219zM823.204096 116.416463l0 6.447664L778.384254 122.864127c0-16.724275-0.363677-26.75884-1.09468-30.041663-2.250175-11.799432-8.756222-17.69854-19.703021-17.69854-15.141855 0-22.743798 11.312908-22.743798 33.935075l0 42.812928 88.362556 0 0 50.721382c0 25.906206-4.316687 44.941472-13.196973 57.104581-12.892896 16.724275-30.345741 25.11682-52.423001 25.11682-22.380121 0-40.076228-8.392545-52.971557-25.11682-9.122332-12.163109-13.805129-31.13756-13.805129-57.104581l0-85.203796c0-25.908639 4.805644-45.003504 14.291653-57.104581 12.892896-16.786307 30.652251-25.11682 53.458081-25.11682 23.718063 0 41.534585 8.756222 53.335234 26.150685 5.899108 8.877853 9.364378 17.636508 10.398242 26.514362C823.024082 90.873934 823.204096 100.362375 823.204096 116.416463L823.204096 116.416463 823.204096 116.416463zM522.899362 565.966195l0 103.386428c0 22.647709-7.153125 33.935075-21.225842 33.935075-14.255164 0-21.309767-11.275202-21.309767-33.935075l0-103.386428c0-22.96395 7.054603-34.458088 21.309767-34.458088C515.746238 531.52027 522.899362 543.014408 522.899362 565.966195L522.899362 565.966195zM878.182565 196.208892c0-76.810035-4.31912-134.280726-12.892896-172.352474-4.623198-19.339344-14.170022-35.577094-28.645338-48.774068-14.413284-13.075342-31.320006-20.615254-50.476903-22.623383-60.633099-6.934189-151.976833-10.279044-274.180807-10.279044-122.178432 0-213.681502 3.344855-274.241623 10.279044-19.132571 2.006913-36.002803 9.548041-50.720165 22.623383-14.656547 13.196973-24.119446 29.433508-28.376534 48.774068-8.550666 36.793405-12.83208 94.204497-12.83208 172.352474 0 76.807602 4.293578 134.21991 12.83208 172.314768 4.646308 19.362454 14.170022 35.601421 28.644122 48.749742 14.4741 13.136158 31.478127 20.823243 50.902612 23.109907 60.268206 6.628895 151.552341 9.888608 273.791588 9.888608 122.203974 0 213.547708-3.259713 274.180807-9.888608 19.156897-2.286665 36.123218-9.97375 50.718949-23.109907 14.657763-13.136158 24.146204-29.373909 28.403293-48.749742 8.514176-36.758132 12.830864-94.228823 12.830864-172.314768L878.182565 196.208892 878.182565 196.208892zM384.968488 824.468755l50.416088 0-59.806008-196.45854L375.578567 494.617397 326.159855 494.617397 326.159855 627.998052c-4.646308 24.326218-14.656547 59.076221-30.103695 104.420292-12.260414 33.776954-22.927461 64.488805-32.171424 92.074737l52.362185 0 35.066244-129.500624L384.968488 824.468755 384.968488 824.468755zM567.902866 660.534369l0-86.175629c0-26.576394-4.68523-45.976553-13.927976-58.103173-12.163109-16.760764-29.652444-25.15331-52.30137-25.15331-22.112533 0-39.4328 8.392545-51.936476 25.15331-9.243963 12.491513-13.865944 31.867346-13.865944 58.103173l0 86.175629c0 26.2115 4.621981 45.429213 13.865944 57.555833 12.503676 16.724275 29.836107 25.15331 51.936476 25.15331 22.659872 0 40.13826-8.429035 52.30137-25.15331C563.217637 705.963582 567.902866 686.745869 567.902866 660.534369L567.902866 660.534369zM733.441566 740.26355l0-245.694806-45.125135 0 0 27.062918c-17.394462-20.336719-34.301184-30.529404-50.780981-30.529404-15.144287 0-24.934374 6.081555-29.191462 18.208174-2.615068 7.845205-3.893411 20.190761-3.893411 36.915036l0 194.001592 44.881873 0 0-180.646498c0-10.885983 0.242046-16.602644 0.546124-17.271615 1.036297-7.23705 4.439535-10.825167 10.400675-10.825167 8.880286 0 18.244664 7.018114 28.157598 21.127321L688.436846 740.239224l45.003504 0L733.44035 740.26355 733.441566 740.26355z"  horiz-adv-x="1024" />

    
    <glyph glyph-name="bgongju" unicode="&#59139;" d="M887.728872 609.272673c-2.033309 6.701632-8.40953 15.44783-15.232936 17.162892-6.885827 1.732457-15.899108-0.316202-20.88568-5.300726L734.668871 499.846448c-9.084912-9.096169-26.207895-9.94142-35.278482-0.87595l-72.416309 72.39482c-4.792143 4.774747-7.411807 11.20418-7.411807 18.057261 0 6.867408 3.496637 11.531638 8.28878 16.304338l119.600959 120.460536c4.954849 4.923126 6.989181 12.241812 5.301749 19.094894-1.716084 6.821359-8.697079 12.319583-15.431458 14.350846-21.179368 6.415107-43.219337 9.667174-65.516156 9.667173-136.403646 0-231.610008-86.180801-231.610008-222.523049 0-31.236422 7.644097-67.683519 20.237927-96.194876L148.625504 181.079404c-13.512758-11.610432-21.330818-27.561729-22.00927-44.971237-0.663102-17.375739 5.904477-33.869389 18.513656-46.488801l72.40096-72.396867c11.946077-11.95631 27.629267-18.521842 44.185338-18.521842 18.031679 0 35.295877 8.026814 47.317679 22.061458l271.555789 316.700989c28.562523-12.589736 60.015885-19.230993 91.230818-19.230993 124.418684 0 225.609341 101.202936 225.609341 225.555105-0.014326 22.290679-3.282766 44.323485-9.700943 65.485457z"  horiz-adv-x="1024" />

    
    <glyph glyph-name="jishuzhichi" unicode="&#58954;" d="M195.560902 675.031579L107.019549 763.572932l25.407519 25.407519 88.541353-88.541353zM976.264662 66.790977l-178.622557 178.622557 25.407519 25.407519-46.965413 46.965413L700.631579 241.56391 595.921805 346.273684l133.966917 134.736842c19.24812-5.389474 38.496241-8.469173 58.514286-8.469173 53.894737 0 104.709774 20.78797 143.206015 59.284211 59.284211 59.284211 75.452632 147.055639 42.345864 224.04812l-19.24812 45.425564-92.390978-93.930827-43.115789-0.769925 0.769925 40.806015L913.900752 842.105263l-44.655639 19.24812c-25.407519 10.778947-53.124812 16.938346-80.842105 16.938346-53.894737 0-104.709774-20.78797-143.206016-59.28421-53.894737-53.894737-72.372932-130.887218-50.815037-202.490226L460.415038 481.780451l-192.481203 193.251128 25.407518 25.407519L132.427068 861.353383 34.646617 763.572932l160.914285-160.914285 25.407519 25.407518 192.481203-193.251127-133.966917-133.966918c-19.24812 6.159398-38.496241 8.469173-59.284211 8.469173-53.894737 0-104.709774-20.78797-143.206015-59.28421C17.708271 190.748872 0.769925 102.977444 34.646617 25.984962l19.24812-44.655639 94.700752 94.700752 40.03609 0.769925-0.769925-43.885714-93.160902-93.160903 44.655639-19.24812c25.407519-10.778947 52.354887-16.938346 80.07218-16.938346 53.894737 0 104.709774 20.78797 143.206015 59.284211 53.894737 53.894737 72.372932 130.117293 50.815038 202.490225l133.966917 134.736842L652.126316 195.368421 577.443609 118.37594l46.965414-46.965414 25.407518 25.407519 178.622557-178.622556c20.018045-20.018045 46.195489-30.796992 73.912782-30.796993 27.717293 0 53.894737 10.778947 73.912782 30.796993 40.806015 40.806015 40.806015 107.019549 0 148.595488z m-46.965414-101.630075c-6.929323-6.929323-16.938346-11.548872-26.947368-11.548872-10.009023 0-20.018045 3.849624-26.947369 11.548872L696.781955 143.783459l53.894737 53.894736 178.622556-178.622556c14.628571-14.628571 14.628571-38.496241 0-53.894737zM345.696241 159.95188c22.32782-51.584962 10.778947-110.869173-28.487218-150.905263-25.407519-25.407519-60.054135-40.03609-96.240602-40.036091h-0.769925l34.646617 34.646617 1.539849 138.586466-135.506767-0.769925-36.186466-36.186466c-0.769925 36.186466 13.858647 71.603008 40.036091 97.780451 25.407519 25.407519 60.054135 40.03609 96.240601 40.03609 18.478195 0 36.956391-3.849624 54.664662-11.548872l20.78797-9.239098 377.263158 377.263158-9.239098 20.78797c-22.32782 51.584962-10.778947 110.869173 28.487218 150.905263 26.177444 26.177444 60.82406 40.03609 97.780451 40.036091L754.526316 775.121805l-1.53985-135.506767 138.586466 1.539849 34.646617 34.646617c0-36.186466-13.858647-70.833083-40.03609-97.780451-25.407519-25.407519-60.054135-40.03609-96.240602-40.036091-18.478195 0-36.956391 3.849624-53.894737 11.548873l-20.78797 9.239097-377.263158-378.033082 7.699249-20.78797z"  horiz-adv-x="1024" />

    
    <glyph glyph-name="hezuohuoban" unicode="&#58955;" d="M11.946 402.9l57.306-30.7s26.066-15.554 39.818 13.506l141.856 309.022s13.426 26.4-8.512 38.814l-62.548 31.792s-19.384 11.256-32.024-12.486c-0.394-9.55-145.588-314.89-145.588-314.89s-9.236-25.032 9.692-35.058z m935.422-31.382l58.482 28.038s27.962 11.802 14.474 41.064L874.408 747.53s-11.66 27.216-34.582 16.982l-62.542-31.584s-20.498-8.936-10.414-33.904c7.006-6.276 148.074-313.796 148.074-313.796s13.164-22.988 32.424-13.71z m-796.644 1.022l19.32 42.636 67.784-89.16s44.076 10.504 59.532-18.212c0 0 14.54-17.462 8.186-50.412 0 0 9.102-6.89 9.824-11.186 0 0 30.324 7.636 48.594-14.808 0 0 16.766-13.912 14.868-41.062 0 0 12.05-5.39 14.54-12.824 0 0 29.798 7.708 44.274-10.438 0 0 17.682-17.19 16.372-37.316l27.704-21.078s25.804-2.252 29.93-23.26l24.82-19.104s39.688-16.372 41.916 24.97l-93.196 73.944s-10.936 29.812 23.25 25.174l138.91-101.916s22.724-10.098 36.478 12.348c0 0 13.36 19.374-5.632 40.384l-147.75 111.192s-13.032 31.108 20.5 28.72l175.32-129.206s24.886-10.298 35.368 9.006c0 0 14.208 19.302 0 39.222L568.106 347.23s-11.656 35.27 24.558 26.128l199.554-148.03s30.192-9.894 43.616 15.754c0 0 17.096 27.562-5.828 50.28L547.732 547.856s-52.458 26.126-83.764-28.514c0 0-5.5-89.024-100.462-105.258 0 0-64.772 5.184-49.708 49.458 0 0 18.994 26.196 17.356 81.382 0 0 2.162 39.568 28.49 73.334H258l22.334 48.228h153.51s63.07 37.248 110.616 33.768c0 0 62.022-3.48 78.656-13.372 0 0 82.124-27.354 118.932-20.944l137.4-296.604-21.806-51.842s40.212-43.046 10.542-95.232c-8.25-17.532-29.468-34.45-64.116-36.088 0 0 5.304-35.198-18.994-55.05 0 0-17.878-25.514-61.166-18.484 0 0 2.486-31.108-26.198-51.778 0 0-34.122-30.558-86.842 6.682 0 0-8.384-34.99-50.494-42.154 0 0-30.716-4.978-48.594 13.03 0 0-32.158-63.102-77.938-27.56 0 0-29.01 25.036-8.644 60.44 0 0-39.032-64.26-85.4-15.96 0 0-25.738 20.122-1.964 62.278 0 0-36.806-43.656-77.346-4.092 0 0-27.636 23.538-5.566 67.332 0 0-37.658-46.456-81.536-2.182 0 0-18.404 17.666-7.794 56.958l42.44 60.442-57.308 76.466z"  horiz-adv-x="1026" />

    
    <glyph glyph-name="guanbianniu" unicode="&#58959;" d="M600.528316 384.048166L1004.565193 788.109125c24.99793 25.022013 25.431421 65.119849 0.987394 89.539793-24.468109 24.468109-64.565945 24.034619-89.563876-0.963311L511.951834 472.624647 107.890875 876.661524C82.892944 901.683537 42.795108 902.092944 18.351082 877.673001-6.117027 853.204892-5.683537 813.107056 19.314393 788.109125L423.375353 384.048166 19.362559-19.964628c-25.046096-24.99793-25.503669-65.095767-0.987394-89.612042 24.419944-24.419944 64.51778-23.962371 89.563875 1.03556l404.012794 404.012794 404.012794-404.012794c24.99793-25.046096 65.095767-25.503669 89.612042-0.987394 24.419944 24.419944 23.962371 64.51778-1.03556 89.563876L600.528316 384.048166z"  horiz-adv-x="1024" />

    
    <glyph glyph-name="xing" unicode="&#59234;" d="M450.770286 514.852571s-5.705143-9.728-146.870857-260.571428c-7.424-12.580571-17.152-26.294857-37.156572-26.294857H130.185143c-8.009143 0-14.299429 3.986286-17.700572 9.728s-3.986286 13.129143 0 20.553143l144.566858 256c0.585143 0 0.585143 0 0 0.585142L165.037714 674.267429c-3.986286 7.424-4.571429 15.433143-0.585143 21.138285 3.437714 5.705143 10.276571 8.557714 18.285715 8.557715h136.557714c20.553143 0 30.866286-13.714286 37.705143-25.709715a28291.145143 28291.145143 0 0 1 93.696-163.437714zM911.350857 881.700571c3.986286-5.705143 3.986286-13.714286 0-21.138285l-301.714286-533.723429c-0.585143 0-0.585143-0.585143 0-0.585143l192-351.414857c3.986286-7.424 3.986286-15.433143 0.585143-21.138286-3.986286-5.705143-10.276571-8.557714-18.285714-8.557714h-136.557714c-20.553143 0-31.414857 13.714286-37.705143 25.709714-193.718857 354.852571-193.718857 355.437714-193.718857 355.437715s9.728 17.152 303.433143 538.294857c7.424 13.129143 16.018286 25.709714 36.571428 25.709714h137.728c8.009143 0 14.299429-2.852571 17.700572-8.557714z"  horiz-adv-x="1024" />

    
    <glyph glyph-name="lianjie" unicode="&#58958;" d="M607.934 478.143c-6.18 6.178-12.766 11.747-19.554 16.91l-0.012-0.011c-6.986 6.72-16.472 10.857-26.93 10.857-21.465 0-38.865-17.4-38.865-38.864a38.697 38.697 0 0 1 9.072-24.947h-0.001a39.02 39.02 0 0 1 9.59-8.256c3.665-3.022 7.262-5.998 10.625-9.361l3.204-3.205c40.28-40.23 28.255-109.54-12.025-149.82l-171.88-171.83c-40.279-40.23-105.762-40.23-146.042 0l-3.23 3.232c-40.281 40.278-40.281 105.81 0 145.99l75.936 75.91c9.742 7.734 15.997 19.67 15.997 33.073 0 23.313-18.899 42.211-42.212 42.211a42.01 42.01 0 0 1-23.725-7.297c-0.021 0.045-0.044 0.088-0.066 0.134l-0.81-0.757a42.455 42.455 0 0 1-8.026-7.51l-78.913-73.842c-74.178-74.23-74.178-195.633 0-269.759l3.204-3.203c74.179-74.127 195.53-74.127 269.708 0l171.83 171.88c74.075 74.175 80.356 191.185 6.281 265.312l-3.156 3.153zM855.62 730.196l-3.204 3.204c-74.178 74.178-195.529 74.178-269.707 0l-171.83-171.88c-74.178-74.178-78.263-181.296-4.085-255.523l3.153-3.104c3.369-3.368 6.866-6.543 10.435-9.589a36.872 36.872 0 0 1 8.993-7.31l0.077-0.062 0.012 0.01a36.508 36.508 0 0 1 18.258-4.87c20.263 0 36.69 16.428 36.69 36.69 0 5.719-1.31 11.132-3.646 15.958-4.85 10.89-13.93 17.52-20.21 23.802l-3.154 3.103c-40.278 40.278-24.983 98.796 15.295 139.074l171.931 171.83c40.18 40.281 105.685 40.281 145.966 0l3.206-3.152c40.279-40.282 40.279-105.839 0-146.068l-75.687-75.738c-10.297-7.629-16.974-19.865-16.974-33.663 0-23.123 18.746-41.87 41.87-41.87a41.668 41.668 0 0 1 21.946 6.211c0.048-0.082 0.093-0.157 0.14-0.24l1.175 1.083a42.09 42.09 0 0 1 9.529 8.793l79.766 73.603c74.233 74.177 74.233 195.53 0.055 269.708z"  horiz-adv-x="1024" />

    
    <glyph glyph-name="download2" unicode="&#59070;" d="M810.667 512h-170.667v256h-256v-256h-170.667l298.667-298.667 298.667 298.667zM213.333 128v-85.333h597.333v85.333h-597.333z"  horiz-adv-x="1024" />

    
    <glyph glyph-name="bofang" unicode="&#59090;" d="M614.638933 403.831467c23.6544-13.653333 23.6544-36.010667 0-49.664l-137.489066-79.36c-23.6544-13.653333-43.008-2.491733-43.008 24.849066V458.410667c0 27.306667 19.3536 38.5024 43.008 24.849066l137.489066-79.428266zM501.896533 760.285867c-98.9184 0-188.381867-38.673067-256.136533-100.727467-0.853333-0.648533-1.672533-1.262933-2.389333-2.048l-1.024-0.853333c0.068267-0.1024 0.1024-0.238933 0.2048-0.341334a18.670933 18.670933 0 0 1-4.1984-11.400533 18.944 18.944 0 0 1 32.1536-13.585067c61.166933 56.388267 141.824 91.7504 231.389866 91.7504 189.713067 0 344.064-154.350933 344.064-344.064s-154.350933-344.064-344.064-344.064-344.064 154.350933-344.064 344.064c0 73.796267 23.8592 141.824 63.5904 197.905067-0.2048 0.034133-0.3072 0.170667-0.477866 0.238933a18.295467 18.295467 0 0 1 3.549866 10.4448 18.944 18.944 0 0 1-18.944 18.944 18.705067 18.705067 0 0 1-14.506666-7.202133h-0.034134c-0.4096-0.546133-0.7168-1.160533-1.1264-1.706667-0.6144-0.9216-1.365333-1.706667-1.809066-2.7648a378.811733 378.811733 0 0 1-67.4816-215.8592c0-210.2272 171.042133-381.269333 381.269333-381.269333s381.269333 171.042133 381.269333 381.269333-171.008 381.269333-381.2352 381.269334z"  horiz-adv-x="1024" />

    
    <glyph glyph-name="xiazai" unicode="&#59094;" d="M758.852267 23.108267a11.707733 11.707733 0 0 0-2.013867-6.7584c-1.297067-1.774933-3.003733-2.798933-4.846933-2.798934h-24.6784c-3.754667 0-6.826667 4.266667-6.826667 9.5232V324.608c0 5.256533 3.072 9.5232 6.826667 9.5232h24.6784c3.7888 0 6.826667-4.266667 6.826666-9.5232v-301.499733h0.034134zM744.1408 1.6384c-2.6624-2.6624-7.611733-2.048-11.0592 1.399467l-145.681067 145.681066c-3.447467 3.447467-4.061867 8.3968-1.399466 11.0592l17.442133 17.442134c2.6624 2.6624 7.611733 2.048 11.0592-1.399467l145.681067-145.681067c3.447467-3.447467 4.061867-8.3968 1.399466-11.0592l-17.442133-17.442133zM735.232 1.6384c2.6624-2.6624 7.611733-2.048 11.0592 1.399467l145.681067 145.681066c3.447467 3.447467 4.061867 8.3968 1.399466 11.0592l-17.442133 17.442134c-2.6624 2.6624-7.611733 2.048-11.0592-1.399467l-145.681067-145.681067c-3.447467-3.447467-4.061867-8.3968-1.399466-11.0592l17.442133-17.442133zM410.692267 336.7936H240.9472a84.992 84.992 0 0 1-84.855467-84.8896v-169.745067a84.992 84.992 0 0 1 84.855467-84.821333h169.745067a84.8896 84.8896 0 0 1 84.821333 84.821333V251.904a84.992 84.992 0 0 1-84.821333 84.8896z m46.08-255.965867a44.714667 44.714667 0 0 0-44.714667-44.714666H239.5136a44.714667 44.714667 0 0 0-44.714667 44.714666v172.509867c0 24.712533 20.036267 44.714667 44.714667 44.714667h172.509867c24.712533 0 44.714667-20.036267 44.714666-44.714667v-172.509867zM807.424 735.095467h-169.745067a84.992 84.992 0 0 1-84.855466-84.8896v-169.745067a84.992 84.992 0 0 1 84.855466-84.821333h169.745067a84.8896 84.8896 0 0 1 84.821333 84.821333V650.205867a84.992 84.992 0 0 1-84.821333 84.8896z m46.08-255.965867a44.714667 44.714667 0 0 0-44.714667-44.714667H636.245333a44.714667 44.714667 0 0 0-44.714666 44.714667V651.639467c0 24.712533 20.036267 44.714667 44.714666 44.714666h172.509867c24.712533 0 44.714667-20.036267 44.714667-44.714666v-172.509867zM410.692267 735.095467H240.9472a84.992 84.992 0 0 1-84.855467-84.8896v-12.6976a19.456 19.456 0 0 1 38.980267 0.034133c0 0.4096-0.2048 0.785067-0.238933 1.194667v12.9024c0 24.712533 20.036267 44.714667 44.714666 44.714666h172.509867c24.712533 0 44.714667-20.036267 44.714667-44.714666v-172.509867a44.714667 44.714667 0 0 0-44.714667-44.714667H239.5136a44.714667 44.714667 0 0 0-44.714667 44.714667V575.5904c0.034133 0.4096 0.238933 0.785067 0.238934 1.194667a19.490133 19.490133 0 0 1-38.980267 0v-96.324267a84.992 84.992 0 0 1 84.855467-84.821333h169.745066a84.8896 84.8896 0 0 1 84.821334 84.821333V650.205867a84.923733 84.923733 0 0 1-84.7872 84.8896z"  horiz-adv-x="1024" />

    
    <glyph glyph-name="qikan" unicode="&#59095;" d="M548.215467 480.119467h46.592c-9.352533 13.9264-30.0032 55.0912 5.3248 109.397333 52.1216 80.1792 21.435733 151.4496-2.082134 177.937067a18.670933 18.670933 0 0 1-28.808533-0.1024 25.8048 25.8048 0 0 1-0.136533-32.9728c4.3008-5.0176 40.96-51.0976-1.9456-117.077334-34.542933-53.077333-31.505067-102.570667-18.944-137.181866zM389.563733 480.119467h43.997867c-6.280533 12.663467-15.906133 41.984 4.881067 78.336 37.819733 65.979733 14.677333 120.285867-2.833067 139.776a18.807467 18.807467 0 0 1-29.013333-0.4096 25.736533 25.736533 0 0 1 0.341333-33.041067c0.273067-0.273067 26.2144-30.139733-2.833067-80.827733-22.289067-38.912-21.8112-76.1856-14.5408-103.8336zM231.3216 480.119467H273.408c-3.037867 10.478933-5.9392 28.296533 3.1744 45.8752 27.682133 53.282133 0.2048 97.962667-0.989867 99.84-6.621867 10.478933-19.421867 12.834133-28.637866 5.3248-9.181867-7.509333-11.264-22.1184-4.642134-32.597334 0.136533-0.2048 13.175467-21.469867-0.989866-48.776533-13.277867-25.463467-13.243733-50.517333-10.001067-69.666133zM866.7136 398.2336a128.3072 128.3072 0 1 1 0-256.6144 128.3072 128.3072 0 0 1 0 256.6144z m0-219.9552a91.648 91.648 0 1 0 0 183.296 91.648 91.648 0 0 0 0-183.296zM781.789867 362.973867v93.9008a23.2448 23.2448 0 0 1-23.2448 23.2448H99.4304a23.2448 23.2448 0 0 1-23.2448-23.2448v-52.872534h0.034133l-0.034133-0.1024c0-11.229867 9.250133-20.309333 20.650667-20.309333s20.650667 9.079467 20.650666 20.309333c0 0.375467-0.2048 0.7168-0.238933 1.092267v32.3584h623.684267v-105.710933c0-171.9296-139.912533-311.842133-311.842134-311.842134-171.2128 0-310.510933 138.717867-311.739733 309.623467 0 0.2048 0.1024 0.341333 0.1024 0.546133 0 11.229867-9.250133 20.309333-20.650667 20.309334s-20.650667-9.079467-20.650666-20.309334v-0.170666c0-194.525867 158.276267-352.802133 352.802133-352.802134 90.077867 0 172.3392 33.962667 234.734933 89.7024 0.3072 0.3072 0.750933 0.648533 1.058134 0.989867a354.645333 354.645333 0 0 1 79.9744 105.437867c42.1888 92.433067 37.0688 189.8496 37.0688 189.8496z"  horiz-adv-x="1024" />

    
    <glyph glyph-name="renzheng" unicode="&#59097;" d="M830.3616 126.907733l-113.9712 204.936534a261.12 261.12 0 0 1 58.4704 164.864c0 144.7936-117.828267 262.621867-262.621867 262.621866s-262.621867-117.828267-262.621866-262.621866c0-62.429867 21.981867-119.773867 58.504533-164.898134l-114.3808-205.653333a15.9744 15.9744 0 0 1 13.687467-23.9616l99.566933-2.286933 54.715733-83.217067a15.4624 15.4624 0 0 1 13.312-7.236267c0.375467 0 0.375467 0 0.375467-0.750933a16.554667 16.554667 0 0 1 13.312 8.362667l118.5792 213.1968c0.7168 1.262933 0.955733 2.628267 1.297067 3.9936 1.2288 0 2.389333-0.170667 3.618133-0.170667 1.194667 0 2.3552 0.170667 3.549867 0.170667 0.3072-1.092267 0.443733-2.218667 1.024-3.208534l118.5792-213.1968a16.042667 16.042667 0 0 1 13.312-8.362666h0.750933a15.018667 15.018667 0 0 1 13.312 7.9872l54.340267 83.217066 99.566933 2.286934a15.496533 15.496533 0 0 1 13.687467 7.9872 16.7936 16.7936 0 0 1 0.034133 15.940266z m-456.8064-70.690133L329.079467 124.245333a14.848 14.848 0 0 1-12.936534 7.236267l-81.3056 1.877333 96.4608 173.499734a261.700267 261.700267 0 0 1 142.848-69.700267l-100.590933-180.9408zM281.941333 496.674133c0 126.941867 103.389867 230.2976 230.2976 230.2976s230.2976-103.389867 230.2976-230.2976-103.389867-230.2976-230.2976-230.2976-230.2976 103.355733-230.2976 230.2976z m426.052267-364.4416a15.36 15.36 0 0 1-12.936533-7.236266l-44.475734-68.027734-100.181333 180.189867a261.632 261.632 0 0 1 142.848 69.7344l96.0512-172.782933-81.3056-1.877334z"  horiz-adv-x="1024" />

    
    </font>
</defs>
</svg>
